/* XPM */
static char *ZG9vcl9jbG9zZQ__[] = {
/* columns rows colors chars-per-pixel */
"50 50 204 2 ",
"   c #030201",
".  c #090503",
"X  c #050904",
"o  c #0D0906",
"O  c #0E0C09",
"+  c #120E0A",
"@  c #15120D",
"#  c #1B140A",
"$  c #1A150E",
"%  c #161411",
"&  c #1B1611",
"*  c #1E1913",
"=  c #1E1C18",
"-  c #231D16",
";  c #231E18",
":  c #1D2515",
">  c #1C3617",
",  c #262417",
"<  c #26211A",
"1  c #2B251C",
"2  c #2E291D",
"3  c #312A1E",
"4  c #27371E",
"5  c #262421",
"6  c #2A2720",
"7  c #2E2922",
"8  c #332D23",
"9  c #382F23",
"0  c #302E28",
"q  c #2C3622",
"w  c #2E3C21",
"e  c #373025",
"r  c #3A3226",
"t  c #35322A",
"y  c #3B352B",
"u  c #3E382E",
"i  c #393632",
"p  c #3D3A32",
"a  c #40372A",
"s  c #443A2C",
"d  c #493E2F",
"f  c #433E32",
"g  c #483F30",
"h  c #413F39",
"j  c #28411E",
"k  c #007B0D",
"l  c #2C4823",
"z  c #354627",
"x  c #37562B",
"c  c #3A5E30",
"v  c #3D6838",
"b  c #464136",
"n  c #4C4334",
"m  c #45433B",
"M  c #4C463A",
"N  c #4D493C",
"B  c #514738",
"V  c #524B3C",
"C  c #4A4741",
"Z  c #4D4B41",
"A  c #534E42",
"S  c #565144",
"D  c #5A5445",
"F  c #55534A",
"G  c #5B5649",
"H  c #5A5848",
"J  c #5E594C",
"K  c #555953",
"L  c #5D5B52",
"P  c #5D5C5B",
"I  c #605847",
"U  c #615C4D",
"Y  c #625E51",
"T  c #605F5E",
"R  c #53684D",
"E  c #51714F",
"W  c #5B635A",
"Q  c #5C6F5B",
"!  c #587656",
"~  c #656154",
"^  c #696454",
"/  c #65645C",
"(  c #6A675A",
")  c #6E6A5C",
"_  c #726D5D",
"`  c #65765E",
"'  c #666564",
"]  c #6D6C62",
"[  c #6C6B6A",
"{  c #716E61",
"}  c #716F6D",
"|  c #6B7367",
" . c #757264",
".. c #797565",
"X. c #7D7A66",
"o. c #74746B",
"O. c #797769",
"+. c #757A6E",
"@. c #7D7A6B",
"#. c #787672",
"$. c #7D7974",
"%. c #7B7B7B",
"&. c #807A65",
"*. c #827E6D",
"=. c #817E72",
"-. c #0D8516",
";. c #16871C",
":. c #1C9424",
">. c #269B2E",
",. c #2A9732",
"<. c #2C9933",
"1. c #339E39",
"2. c #2CA535",
"3. c #37A43C",
"4. c #3DA441",
"5. c #568657",
"6. c #4F9D52",
"7. c #519353",
"8. c #509952",
"9. c #40A645",
"0. c #46A74A",
"q. c #4BAF4F",
"w. c #46B64C",
"e. c #4DA451",
"r. c #4CAB50",
"t. c #52AB57",
"y. c #4DB152",
"u. c #4FBC56",
"i. c #52B456",
"p. c #59B45D",
"a. c #54B858",
"s. c #639E64",
"d. c #738F72",
"f. c #5EAF61",
"g. c #5DB561",
"h. c #69A96B",
"j. c #62B564",
"k. c #6AB46D",
"l. c #65B868",
"z. c #6BBB6D",
"x. c #6EA270",
"c. c #76AB77",
"v. c #72BD73",
"b. c #4CC555",
"n. c #53C159",
"m. c #55CD5E",
"M. c #5DC762",
"N. c #5DD465",
"B. c #62C669",
"V. c #64D56B",
"C. c #71D275",
"Z. c #6CE375",
"A. c #74E57B",
"S. c #86816E",
"D. c #8A846E",
"F. c #858273",
"G. c #898673",
"H. c #88867A",
"J. c #8E8C7A",
"K. c #938D75",
"L. c #918E7B",
"P. c #94917B",
"I. c #9A957D",
"U. c #7DF384",
"Y. c #8D8B83",
"T. c #8D8B89",
"R. c #928F8B",
"E. c #9A9582",
"W. c #9D9A84",
"Q. c #979488",
"!. c #95928E",
"~. c #9D9B8A",
"^. c #999692",
"/. c #A19E85",
"(. c #A19D8C",
"). c #91AE8F",
"_. c #88BB86",
"`. c #96B990",
"'. c #A4A28C",
"]. c #A9A68D",
"[. c #ABA88D",
"{. c #ADAB94",
"}. c #A8A698",
"|. c #B1AE95",
" X c #B5B39B",
".X c #B7B49A",
"XX c #B8B59B",
"oX c #ACA9A2",
"OX c #BCBAA2",
"+X c #B7B5A9",
"@X c #B8B9B4",
"#X c #C0BEA7",
"$X c #89C888",
"%X c #9BC799",
"&X c #81F589",
"*X c #9FD1A1",
"=X c #AEDAAA",
"-X c #C3C2AB",
";X c #C7C5AB",
":X c #C7C5B5",
">X c #D6D5BD",
",X c #CCCAC6",
"<X c #D1D0C1",
"1X c #EAEAD0",
/* pixels */
"q.u.m.U.U.q.q.q.q.q.q.q.q.q.q.q.q.q.q.q.i.q.@X+X@X@X@X,X*Xt.r.y.q.q.q.q.q.q.q.q.q.q.n.N.m.U.U.a.q.q.",
"u.w.3.V.V.q.q.q.q.q.q.q.q.q.q.q.q.q.q.g.d.!.E.Q.R.*.D.{.}.oX).z.q.y.q.q.q.q.q.q.q.q.u.b.N.Z.Z.V.n.q.",
"n.2.-.3.y.q.q.q.q.q.q.q.q.q.q.q.q.x.` X.Y ].].oXoX~.K.G.].XXP.C } z.t.q.q.q.q.q.q.q.q.y.m.m.N.&XC.r.",
":.>.<.0.q.q.q.q.q.B.A.i.q.q.q.k.` Y.y )  XG.) ( { Y Y F { =.E.Y }.1X~.`.i.y.q.q.q.y.y.4.:.:.2.V.M.w.",
"-.<.q.q.q.q.q.0.1.B.&Xy.q.h.R ( }.,X~.0 d...=.{ .... . .Y ( y F.>X{ /. X .k.q.q.q.q.q.4.-.k -.b.u.w.",
"q.q.q.q.q.q.q.3.k ,.q.q.5.H |.OX~.) I.O.D =.o. .X.O.) ) _ A Z -X*.( ] { W.+.k.r.q.q.q.q.q.-.-.b.u.y.",
"q.q.q.q.q.q.q.0.1.9.h.E h F.;X) )  .*.|.- G o. . .{ ) L ( * ) ].D ..*.*.] p O.g.q.q.q.q.r.3.<.:.1.y.",
"q.q.q.q.q.q.q.y.q.s.R 1X'.h ..F.....) ~.L.s ) 7 ; 2 ; p ^ 1 W.'.( _  .d.F m #XJ.k.q.q.q.q.r.9.;.,.q.",
"q.q.q.q.q.q.q.q.s.N XX X@.N S J.] ) ~ ^ J @ * . . . o $ & * ( L.X.(  .J i @XJ.(.$.k.q.q.q.q.q.q.q.q.",
"q.M.A.a.q.q.q.s.b OXF./ ..) b / ..G f @ . + o $ O * - @ + @ + 8 A _  .Z ^.*.Y @.'.@.l.q.q.q.q.q.q.q.",
"q.V.&XM.a.y.f.u ;XS.(  .) @.D N y < + . * - < 8 % 8 e 3 7 e < & & 7 b L.#X(  .@.) W.o.j.q.q.q.q.q.q.",
"q.n.V.A.A.q.E _ OX/  .O. ...( 3 . @ 1 * e e e d - C n s e d e 9 8 @ @ S  .o.) { ) )  XQ q.q.q.q.q.q.",
"q.u.m.V.V.j.R ; S ) _ ) { ~ < o * - 9 3 n s d B ; F B n n V f n M 9 - & Z  .)  .( N L 5 k.r.r.q.q.q.",
"q.y.b.m.m.E >XF.6 b W ~ _ 1 o & < e s 9 B n n D 6 J I V V U Z A D d e 1 - A  .~ y Y }.H.o.q.q.q.q.q.",
"q.2.:.w.B.X.I./.|.o.7 J 7 + * - s y S y J A S ^ 6 Y U A V Y A U U n g r < @ V F %.<XG.E.F.c.y.y.q.q.",
"q.<.-.w.` ]._ H ~.:X[ < o @ 1 1 s d ) p S V S ^ 6 Y U V A U m Y ) V n d s - * b ^.) ) E.H.).r.y.q.q.",
"q.q.r.y.`.S. .] Y F.T . % & r y s n ^ b D B U ) 8 J J D S D A D ^ S V d b 2 % 7 _ @.O._ oX=.l.r.q.q.",
"q.q.r.d.XXE. . .G._ $ % ; ; s a n n ~ M Y B U U 7 J M J S V A D ^ V V B V 9 2 O m F.O.G ~.F.c.y.q.q.",
"q.q.y.d...E...Y { _ * $ 9 r n g V B ^ N ^ B U U t G f D D D G D ^ V B V G p y . b O.Y ^ ) OX/ y.q.q.",
"q.q.y._.C 0 M G { u . & r y B d B n ^ M Y M D D 0 / f n V D D G H n S B J f y   6 Y N M t  .K p.q.q.",
"q.q.v.J.{.L.p y s 1 . 1 f m D g S B ~ N ) B g I p { n n V I U H I B V S Y b f O + y t H.+X@XL d.q.q.",
"q.q.v.G.) W.:X'.y % . ; 7 7 s 1 3 3 r 8 V r r J i L f a y n d 3 e 8 9 9 u ; 8 . % 8  X-X=.J.Y ` q.q.",
"q.r.C.I.^ @.{ J.y & h Y =.T.!.!.!.T.T.!.].(.L.X.t J { F.(.'.^.T.R.R.!.!.R.H._ m 8 - /.X.Y @.Y o.q.q.",
"q.y.$XK.^ H...Y 0 & 7 h [ ' K P / P ' P F L C t % L p p L F K ' T P P P P ' C 0 % + {.&. .=.Y o.q.q.",
"q.p.$X|.^ &.{ @.y   . * !.J . + & & =.A . .     X C O   .   < Y.u + * . $ D.f .   @ OX_ J O.A | q.q.",
"q.p.$XK.B ^ Y { y .     1 1 + + .   6 0 . O + $ O C - + . + = t . . o + + 8 O .   o OXG.( ..M / q.q.",
"q.p.$X*.s ( F D 9 + $ 1 ; - 1 , 1 1 - - < 2 2 3 @ y 8 2 1 8 ; * 1 1 1 2 ; % * @ . @ [.) ( I 2 | q.q.",
"q.i.`.m A A C M 6 ; 8 g f s B n g n n f A y u u & t n y y f n f B g g B g 8 0 1 + * Z m m m 0 T q.q.",
"q.a.%X#X@X#X;XJ.0 8 s n J J U M n B L f U n A D < Y J V M U M A D s B A J Z f 8 & &  X>X+X-X}.| q.q.",
"q.l.=XI.V _  .{ y 8 s n A N I B n B S y J n V D 1 U D A n D n f J d V B V f f 2 + O {._ H O.^ +.q.q.",
"q.l.=XE.Y  .{ ( i 8 s g M n J M V A F f ~ f n J 5 J V B s J F n D B A B N y f 6 + o {...) F.^ +.q.q.",
"q.t.$XK.Y { U _ s 7 y B F m I n B A D h ^ n g D 5 J f f g G F b J M M B N p n 2 @ o +XF./  .S  .q.q.",
"q.0.e.I.B Y { L.s 6 s B S m I s n B A Z U n n A 6 U g g V A F N V n n B M p n 1 @ O +XF.J _ S | q.q.",
"q.p.z.X.y Y ^ ^ 7 2 s B J C Y g V V S b Y V n V 6 Y B M B I F B S V B A A f m 1 @ O P.^ G G f +.q.q.",
"q.q.`.f h m A M 7 $ - - 8 ; s 3 e 9 8 * M 9 r g ; A a 2 3 g 7 ; r 9 8 r 8 - 1 o o % A Z m Z y / n.b.",
"q.q.$X.XOX#X#X*.r Y } [ } [ #.=.$.$.$.=._ ) ^ ^ 7 f Y Y ( _ ..} $.$.$.=.[ } [ F y < {.OXOX;XP.' m.N.",
"q.q.z.I.Y ..) Y u / %.%.%.%.%.%.%.%.%.#.L ^ G A 5 ( ..A ( Y ] %.%.%.%.%.%.%.%./ f 6 |.) F ) H ' m.m.",
"q.q.B.W.Y  .{  .t   . & R.A   + $ $ #.m . o + .   A ; . + . - %.y + &   + *.f     + XXF.) F.^ ] >.>.",
"q.r.z.I._  .U { t . . O h p + $ O . h n + + & & X i - $ + + 1 A & . @ @ ; m ;     O {...) F.Z ) k k ",
"q.y.z.K.Y &.) ..t O + o o . + o O % . o & & + &   @ - + # $ o o o @ + + o . . + . O  XS.Y ] A ] 4.4.",
"q.q.l.*.u G F A 7 & - 1 1 ; r 8 ; r 7 - 1 1 2 r @ @ 3 3 1 1 < 1 r 2 1 r 2 - ; - @ @ ].) S V e | q.q.",
"q.q._.f A C A g 2 - 7 0 y y n a a y f 8 g a s d $ * M s y n e r s a r f f 1 u ; O % D N Z J e W q.q.",
"q.q.v.(.]. XOXH.y - 7 0 f y f 9 s s g u B d a f - 9 B s s n u b y s a r f 6 e 1 @ % {..X'.XXD.W q.q.",
"q.q.z...f J U ( y * 8 8 r 8 s y s y f y M s a d ; 1 N r s s s u y a s y f 2 r 1 @ @ ].~ B J b W q.q.",
"q.q.z._ M I Y G s - 6 r y r u 8 s s g 8 n r s n = & N d s n r r g s a r u 3 y ; # $ I.^ J ~ y W q.q.",
"q.q.z.I g B B A a - ; r r 8 f r s d n 1 d r s d * & M s y d 2 r M a 8 y f 9 u - @ $ /.H H ( 2 R q.q.",
"q.q.j.D s Z y B 8 - 1 6 8 r n y s d f & s a a s & & n s 9 s 2 e n y a g y 2 8 - & - L.b r V 8 P q.q.",
"q.q.a.D e f a g 8 ; 2 a r f A a d n d , d n r n * * M e a n 9 r B g a g g 8 s < @ * *.n r n 2 W q.q.",
"q.q.f.@ : , 4 w l > 4 4 , q z 1 2 3 , # , , * , . X w w z z : j x x x c v l x l > : z : - ; . K q.q.",
"q.q.y.! 5.7.7.7.7.7.7.7.7.7.7.8.8.6.e.e.6.e.e.e.r.e.e.r.e.0.q.q.q.e.e.e.e.6.7.7.7.7.5.E Q W K x.q.q."
};
