/* XPM */
static char *ZG9vcl9vcGVu[] = {
/* columns rows colors chars-per-pixel */
"50 50 198 2 ",
"   c #020101",
".  c #090605",
"X  c #0C0906",
"o  c #0E0B09",
"O  c #110E0A",
"+  c #15110D",
"@  c #1A140B",
"#  c #1B150E",
"$  c #161411",
"%  c #1A1611",
"&  c #1E1914",
"*  c #1D1B19",
"=  c #221C15",
"-  c #211E1A",
";  c #262016",
":  c #25211B",
">  c #2A251C",
",  c #2D281F",
"<  c #31291E",
"1  c #2B2721",
"2  c #2E2922",
"3  c #2E2C2A",
"4  c #332D23",
"5  c #382F23",
"6  c #312E29",
"7  c #363026",
"8  c #393226",
"9  c #35322A",
"0  c #3B352A",
"q  c #3E392E",
"w  c #393634",
"e  c #3D3A31",
"r  c #403728",
"t  c #443B2D",
"y  c #483E2E",
"u  c #433E33",
"i  c #483F30",
"p  c #403E39",
"a  c #077D0D",
"s  c #464135",
"d  c #4B4234",
"f  c #444239",
"g  c #4B453A",
"h  c #4E493C",
"j  c #504738",
"k  c #524A3C",
"l  c #59513F",
"z  c #4A4745",
"x  c #4D4A41",
"c  c #534E41",
"v  c #565145",
"b  c #5A5343",
"n  c #54534A",
"m  c #5A564A",
"M  c #5E5A4C",
"N  c #585755",
"B  c #5D5B53",
"V  c #615C4E",
"C  c #625E52",
"Z  c #5B6254",
"A  c #68604B",
"S  c #656154",
"D  c #6A6556",
"F  c #6F6854",
"G  c #666459",
"H  c #6A6659",
"J  c #6E6A5C",
"K  c #716D5D",
"L  c #77725D",
"P  c #646362",
"I  c #686561",
"U  c #6B6963",
"Y  c #6B6B6B",
"T  c #726E62",
"R  c #757264",
"E  c #797565",
"W  c #7D7865",
"Q  c #75726A",
"!  c #797669",
"~  c #7D7A6C",
"^  c #7D7B71",
"/  c #7F7C79",
"(  c #817E6D",
")  c #817D72",
"_  c #0D8416",
"`  c #0D8816",
"'  c #16871C",
"]  c #1C9424",
"[  c #26982E",
"{  c #2C9933",
"}  c #2CA535",
"|  c #37A43C",
" . c #3CA340",
".. c #42A847",
"X. c #4BAF4F",
"o. c #46B64C",
"O. c #50A250",
"+. c #4DB151",
"@. c #4FBC56",
"#. c #54B858",
"$. c #728F6C",
"%. c #5EB162",
"&. c #69B769",
"*. c #71B46C",
"=. c #78BC77",
"-. c #4CC555",
";. c #53C359",
":. c #55CD5E",
">. c #5DC762",
",. c #5FCD64",
"<. c #5DD465",
"1. c #64D56B",
"2. c #76C175",
"3. c #7BC37D",
"4. c #6AD070",
"5. c #6CE375",
"6. c #72E379",
"7. c #858273",
"8. c #898574",
"9. c #8A8778",
"0. c #8D8A79",
"q. c #908D7A",
"w. c #9A957E",
"e. c #84C27F",
"r. c #7CEE83",
"t. c #7DF384",
"y. c #8C8A81",
"u. c #8C8C8C",
"i. c #889483",
"p. c #999683",
"a. c #9C9A84",
"s. c #969589",
"d. c #9E9C8B",
"f. c #929292",
"g. c #989793",
"h. c #9C9997",
"j. c #9D9B9A",
"k. c #A39E86",
"l. c #A29F89",
"z. c #A19E9B",
"x. c #8EAC8F",
"c. c #86BC86",
"v. c #93A392",
"b. c #A5A28D",
"n. c #A9A68D",
"m. c #AAA894",
"M. c #A3A19E",
"N. c #B2AE94",
"B. c #B2AF9E",
"V. c #A8B49C",
"C. c #B5B39B",
"Z. c #B9B69E",
"A. c #BCB99F",
"S. c #A5A5A2",
"D. c #ABABAC",
"F. c #ADB6A5",
"G. c #B4B3A2",
"H. c #BCBBA3",
"J. c #B6B5AA",
"K. c #B9B6AC",
"L. c #BBB9AC",
"P. c #B4B3B3",
"I. c #BBBAB6",
"U. c #C0BEA7",
"Y. c #C1BFB1",
"T. c #87C584",
"R. c #93C98B",
"E. c #99D09B",
"W. c #81F589",
"Q. c #9ED4A0",
"!. c #A1C9A5",
"~. c #B4C6AA",
"^. c #A5D7A7",
"/. c #B3DBB4",
"(. c #BEE2BF",
"). c #C4C2AA",
"_. c #C7C6AB",
"`. c #CCCBB3",
"'. c #C3C2B8",
"]. c #D8D6B9",
"[. c #C5C3C2",
"{. c #CAC8C5",
"}. c #C2D0C3",
"|. c #D7DBC5",
" X c #DBD9C1",
".X c #D5D5D4",
"XX c #C7E6C8",
"oX c #CDF1CF",
"OX c #D3ECD4",
"+X c #D7EDD8",
"@X c #DAEFDB",
"#X c #D9F4DA",
"$X c #E3E3C8",
"%X c #E3E4DC",
"&X c #E5F3E6",
"*X c #EEF2EF",
"=X c #F4F6F5",
"-X c #FEFEFE",
/* pixels */
"X.@.:.t.W.X.X.X.X.X.X.X.X.X.X.X.X.X.X.+.F.P.y.Q ^ ! K a.B.[.{.%X+X/.&.X.X.X.X.X.X.X.;.,.<.t.r.#.X.X.",
"@.o.| 1.1.X.X.X.X.X.X.X.X.X.X.X.X.&.g.g.g 8.C.I.Y.B.k.l.l.l.k.U u.}.2.#.X.X.X.X.X.X.@.-.:.5.5.1.#.X.",
";.} _ | +.X.X.X.+.X.+.X.X.XXXX+.$.R > H C.b.R H Q C S c T n.n.E w %X Xv.X.+.+.X.X.+.X.+.:.:.<.W.4.X.",
"] [ { ..X.X.X.X.+.,.6.2.=X.XY N 7..Xy.e 0.J ( R R ! T R C m m n ].Z.0.~.g.S.#.X.X.+.+. .] [ } <.,.X.",
"_ { X.X.X.X.X.X. .>.oX-Xu.g ( H.H.$.l.v J 9.~ T K W U T T J f ! A.S R R p.8.P.X.X.X.X. ._ a ` -.-.X.",
"X.X.X.X.X.X.X.%.!.-X~./ 1 k. X! T T ( G.- C Q ! ) ( T H C d 6 _.E H ~ R Q ! x [.^.X.X...+.a ` ;.@.X.",
"X.X.X.X.X.X.X.*X-XP.x C.^ m q.! T E ! l.J u ! c d d h u T 6 c Z.m K ! ~ 7.: H m.P.X.X.O.+. .{ ] | X.",
"X.X.X.X.X.X.X.-XD.q Z.$X7.u D q.T T C ( a.> h O   .   + u > D Z.7.R G ~ g B H.m.9.x.r.O.X.X. .' [ X.",
"X.X.X.X.+.+X-XD.w m.p.K ! v h ! R S M 9 $   .             . % u D T E S w j.! J b.7.D.-X3.X.X.X.X.X.",
"X.>.6.#.=.-XD.3 k.p.D R T ( u n m f =                         X & f V V J.d.M ^ R a.^ D.-XX.X.X.X.X.",
"X.4.W.>.=X-Xm 8.].C Q R T ! C u 5 0 o                             % , v p.( T J Q M b.~ P.-XO.X.X.X.",
"X.;.1.6.-Xz.- V E H R R T H i r y y $                             = 0 2 g U R J Q S ~ H P -XE.X.X.X.",
"X.@.:.1.F.Q s.1 w H J H T 9 < y t y +                             : 4 8 4 x T K H q k U w [.-XX.X.X.",
"+.o.-.-.c.D ].l.f u h C c , r i r y +                             = 8 d 8 8 m H s I ~.C.s.y.*XX.X.X.",
"+.{ ] -.$.k.H 8.|.g.4 u d 4 8 i t t +                           . > 4 r 4 r j 8 Y J.a.b B.B .X&XX.X.",
"X.{ _ o.U k.H C T K.C 8 k 2 < r < 9 O                           . - 4 0 2 u c 4 m ( H E m.$.[.*XX.X.",
"X.X.X.=.).R Q R E K f d g 2 > q c f X                           . : 0 8 4 0 d g f Q 7.R J L.G =XX.X.",
"X.X.X.Z ).8.R J 7.M , g g 8 h g 9 $                               o = u g q h d > m ~ S G d.q.D.X.X.",
"X.X.X.G D R K V R c q g u 6 > %   .                                   & > 9 f d q M R M M J a.U 2.+.",
"X.X.X.G.n 4 4 v V 0 7 # z L.1   > > .                             + &   x L.2 - 7 f h 8 x N ^ I /.3.",
"X.X.&.J H.p.J e 8 = $ 4 = e * : t 5 .                             & 7 * 2 q & 7 + > q E L.'.K.e h.Q.",
"X.X.+.R H a.).b.0 = X . : # 4 k d 4 .                             : y k 4 * = . . > M ].8.S 7.h j./.",
"X.X.%.K K ~ H K : & 9 g b q t y d 8 .                             : t y 7 g l f 7 + g b.G R 7.x j.(.",
"X.X.*.L R 0.R C 4 q b j c q r d d 0                               & t d 0 g j k b , k H.S ~ ~ k M.XX",
"X.X.2.W J J K E , 0 b t k 8 q y d 4 .                             * t d 0 s d d M = c H.k D E q h.OX",
"X.X.&.A b D H H > k V t k 9 t d i 4                               - 0 y t s d r D 9 h `.H ( K 9 g.+X",
"X.X.e.d g M h g > M V y k 8 4 y y 9 .                             & r t 0 d d y F u u p.g D r : j.@X",
"X.X.i.h D m M g = b V d k 8 < y d 0 .                             : t y y d h g F u 1 n n n B 6 g.@X",
"X.X.2.H.K.).).J , M m d k 8 4 d d 4 .                             : t d g d d d D i d $X'.G.`.) h.@X",
"X.+.T.F v H K G 7 M V d b 0 < q r 0 .                             = t t 4 u v g D g c N.h C W c S.+X",
"X.X.R.E J ! K S 4 g m f u q t 8 q :                               + 4 4 r 9 e d B 4 h G.V ~ 7.v S.OX",
"X.| *.H J D S J 2 & q s g q 4 = #                                   O & 2 e x u 2 O u Y.J U T u j.OX",
"X.{ O.F v V 7.( 7 v h 2 e / - . $ .                                 o   9 ^ 6 e v p x Y.C D K d M.OX",
"X.X.e.l g B F b 4 1 & * 3 ) :   O =                             . $ .   e ) * - - 2 k a.h C c u M.OX",
"X.X.0.9 f f v 7 B N o $     . , 4 4 .                           X > 4 :       & O Y p c f s z > h.OX",
"X.X.T.N.H.).H.H 4 * $ $ * > , 0 4 4 o                           X = 4 4 = , & & $ % g _.C.H.`.R j.#X",
"X.X.R.L K K J V ; # t s q > 5 4 4 4 o                           + > > 9 < < i i r   c Z.v V Q d h.#X",
"X.X.e.W H J R J 1 < r d t ; < 7 1 4 o                           O = > 9 < , y u t = v U.G Q 7.l j.#X",
"X.X.3.W E H D J 2 4 d y t < 8 7 4 0 o                           X > , 8 < < y y i = h Z.V $.7.q j.=X",
"X.X.e.F L J K U 2 < d y y > 0 8 4 7 o                           X > , 7 < 5 d t j = g U.V D K s j.=X",
"+.+.R.A c D S c > 7 d t y ; 0 9 4 < .                           O = , 0 4 5 d t d = h U.m H c q S.-X",
"X.+.s.2 e 6 u 8 , s d t y < u r t < .                           X > 2 e 0 < y t k 5 8 v 6 d u # g.-X",
"X.X.G.a.N.H.G.K 4 q d r d 8 t r > = .                 .   . .   O = > 0 8 q y y c 4 g A.n.n.U.V u.-X",
"X.X.~.F c J K H > 7 d d c 6 = +   . O .   . X o o @ O @ O # + # # # # ; ; t k t j > h N.b V K q f.-X",
"X.X.~.v h V V M 4 u b i 2 +   . o O @ o @ @ = # + & # & & & + = = # # = # ; 8 t m 2 g k.k V V 2 u.E.",
"X.X.V.d k k c k 0 r 1 X   . O O # + # + & = = = , > > > > > > 1 > > > 4 > > = = t < d w.k D V # f.T.",
"X.X.V.t g d t k > .   . X O # O % = = = > > 4 1 4 4 4 4 4 4 4 4 4 8 4 4 4 4 4 < 4 = k 0.4 k b = f.XX",
"X.X.F.q t u 0 d -   + @ O = # & = 1 4 1 4 8 9 u r i i i i i y y i t i t d y t d y 0 k 7.< r d = f.(.",
"X.X.9.& 1 7 4 7 :   . X + & * : > 4 4 8 t y d k g g j g g k g g g d k d g g d h d g q g , 4 6 O f.^.",
"X.+.Y o : - 1 1 - * % * & * : - > 7 9 q f f g d z g g g g d f g g g f g g g g d x p - * - - 1 + j.+X"
};
