/* XPM */
static char *Z3JvdW5k[] = {
/* columns rows colors chars-per-pixel */
"50 50 95 2 ",
"   c #007707",
".  c #057C0C",
"X  c #087D0F",
"o  c #087F10",
"O  c #07800F",
"+  c #0C8313",
"@  c #0F8817",
"#  c #108317",
"$  c #14861A",
"%  c #138A1B",
"&  c #188B1F",
"*  c #1C8C23",
"=  c #1C9324",
"-  c #219027",
";  c #24932B",
":  c #249B2B",
">  c #299A2F",
",  c #2B9731",
"<  c #2D9A33",
"1  c #319C36",
"2  c #339D38",
"3  c #2CA434",
"4  c #36A13C",
"5  c #39A23E",
"6  c #35AD3D",
"7  c #38AD3F",
"8  c #3DA442",
"9  c #3BAA41",
"0  c #3CB444",
"q  c #40A745",
"w  c #42AA47",
"e  c #45AB49",
"r  c #4BAE4F",
"t  c #43B449",
"y  c #49B24E",
"u  c #43BB4B",
"i  c #4CAF50",
"p  c #4DB251",
"a  c #4EB954",
"s  c #51B655",
"d  c #51BB56",
"f  c #54BC59",
"g  c #58BE5C",
"h  c #4CC454",
"j  c #4FC857",
"k  c #53C45A",
"l  c #5AC15F",
"z  c #56CD5D",
"x  c #57D05F",
"c  c #5EC663",
"v  c #5ACD61",
"b  c #59D161",
"n  c #61CA66",
"m  c #63CE69",
"M  c #63D26A",
"N  c #64D06A",
"B  c #65D36B",
"V  c #66D16C",
"C  c #69D46E",
"Z  c #62D96A",
"A  c #67DA6E",
"S  c #65DC6D",
"D  c #6AD570",
"F  c #6AD970",
"G  c #6BD972",
"H  c #6CD872",
"J  c #69DF71",
"K  c #6DDE74",
"L  c #70DE77",
"P  c #71DE77",
"I  c #69E071",
"U  c #6AE172",
"Y  c #6CE374",
"T  c #6EE375",
"R  c #6FE176",
"E  c #6DE475",
"W  c #6EE576",
"Q  c #72E079",
"!  c #75E37B",
"~  c #72E679",
"^  c #77E67D",
"/  c #72E97A",
"(  c #76EA7E",
")  c #78EC80",
"_  c #7BEC82",
"`  c #7DF385",
"'  c #7FF186",
"]  c #80F287",
"[  c #81F388",
"{  c #81F389",
"}  c #84F78B",
"|  c #84F98C",
" . c #86FA8E",
".. c #86FB8E",
"X. c #89FD91",
/* pixels */
"r d b | ( p r i i i i i i i i i i i i i i i i i i i i i i i i i i i i i i i i i i i z b b ( ` p r p ",
"f t 6 M m i i i i i i i i i i i i i i i i i i i i i i i i i i i i i i i i i i i i p d k z I / C g r ",
"z 3 O 8 i i i i i s p r i i i i i i i i i i i i i i i i i i i i i i i i i i i i i i i p k x b | V i ",
"@ ; 8 r i i i i i H ) s i i i i i i i i i i i i i i i i p i i i i i i i i i i i i i i 9 % % : b k i ",
"& 1 p i i i i e 2 c P s i i i i i i r i i i i i i i i p r i i i i i i i i i i i i i i 8 * X @ j f i ",
"r i i i i i p 5 o 1 p i i i i i i i p i i p i i i i p p i i i i i i i i i i i i i i i i r * % j a i ",
"i i i i i i i e 2 e i i i i i i i k k k K P p i i r n ^ f r i i i i i i i i i i i i i i r 8 1 * 4 p ",
"i i i i i i i i i i i i i i i i i k v b / ) c s p g H _ g r i i i i i i i i i i i i i i i i q $ 1 i ",
"i r r i i i i i i i i i i i i i p k z b b S | V s { / b p p r i i i i i i i i i i i i i i i r r i i ",
"r n P s r i i i i i r i i i i i y < : : u b U b k J Z z a p k F D p i i i i i i i i i i i i r i i i ",
"r N { n s p r p r s f p s f p i r * o   0 b z x b h h z a d b ( ^ p i r i i i i i i i i i i i i i i ",
"r g b ] Q i i r r P { b Y { f r i e <   0 b x x h $ 3 b z z x f p i i p i i i i i i i i i i i i i i ",
"i d b Y A k p f D Y E b M C s i p a u 3 3 6 z b h O : x b h 3 k V k p r i i i i i i i i i i i i i i ",
"p a k z z h p l | U z j a y r p i k b b : % h z j + : x z 6 + Z ' v a p i i i i i i i i i i i i i i ",
"p 1 % h 0 @ 5 f N b h % , y r r p p a b j 0 @ 0 j O 3 z = = h b b a p i i i i i i r i i i i i i i i ",
"p 2 - u t * q e 6 h k : t M s r r p e 9 h h : 3 3 O % 6 + = x 0 9 r i i i i i r f m g a i i i i i i ",
"i i i i i i r 4 . 6 x b W { f i p p 2 . 0 b k :       .   = z = $ r i i i i i p m | Z k p i i i r i ",
"i i i i i i - = 0 j b b 0 ; e i r i e 8 y e = O . 4 5 8 8 q a 8 8 r d z z d p ! ( A k p i p i i p i ",
"i i i i i r ; ; z k k k 4 & w i i i i p i q * $ * e p i i i i a d d t u z k g ( A 0 k c a p i i i i ",
"i i i i i i r r p p i p i y i i i i i i i i e i r p i i i i i k z z : @ j z z b 6 o J ) v a i i i i ",
"i i i i i i i i i i i i i i i i i i i i i i i i i i i i i i i s k z u 6 = 0 k > 3 0 b N a a i i i i ",
"i i i i i i i i i i i i i i i i i i i i i p g s i i i i i i i i p u z h X : u X % h k k i p i i i i ",
"i i i i i i i r i i i i i i i i i i i i i g } D i i i i i i i p 8 . 7 h O   X     + 9 i i i i i i i ",
"i i i i i i i i i i i i i i i i i i i i i s V 9 ; e i i i i i i w , t t +   . ; , , e i i i i i i i ",
"i i i i i i i i i i i i i i i i i i i i i i i ; # e i i i i i i i i i q o X o r p p i i i i i i i i ",
"i i i i i i i i i p i i i i i i i i i i i i i r e i i i i i i i i i i i e e e i i i i i i i i i i i ",
"i i i i i i i i r 2 < r i i i i i i i i i i i i i i i i i i i i i i i i i i i i i i i i i i r p i i ",
"i i i i i i i r y * X y s i i i i i i i i i i i i i i i i i i i i i i i i i i i i i i i i i i i i i ",
"i i p r i r i 8 @ . @ / V p i i i i i i i i i i i i i i i i i i i i i i i i i i i i i i i i i i i i ",
"i i p c n n g t = * , / N p 5 8 i i i i i i i i i i i i i i i i i i i i i i i i i i i i i i i i i i ",
"i r p ) X.| A z b a p b b h @ * i i i r i p i i i i i i i i i i i i i i i i i i i p i i i i i i i i ",
"i 2 % : 9 c v x b k k a k z 9 e k k t $ 2 i i i i i i i i i i i i i i i i i r r n ^ g i i i i i i i ",
"p 1 # % > p k k b x z p a k d k b z t % 9 a p p p i i i i i i i i i i i r i p p m ' u q p i i i i i ",
"i i r k z z a a z x k p p p k b z a a z z z z k p i i i i i i i i i i i p r p k x x & & r r i i p r ",
"i i p a k z k k a a a p p p z z a k k z b b b a i i r p i i i i i i i r r r p z u : > 5 k k k k k k ",
"i i i i a k z k p p p p i p k k a k b z h h h y i i i i i i i i i i s g g s p k 6 + 8 f z b z z x x ",
"i i i i i p p p i i i i i i p a z v z b : o . < i i i i i i i i i i K | X.V i p r e k z z x b x z v ",
"i i i i i i i i i i i i i i p a z b h 3 @ o - 8 i i i i i i i i i i c P X.K d p p k z x x 0 3 3 3 3 ",
"i i i i i i i p s p i i i i i d z b 0 o . $ i i i i i i i i i i i i r f { Y z s d x x z h =   X . . ",
"i i i i i i r l ' m i i i i i p p a i q q q i i i i i i i i i i i i i p f l z p d x x u # . X 5 q q ",
"i i i i i i i f P p 1 r i i i i i i i i i i i i i i i i i i i i i i i i r s d s p k k t - * ; r p p ",
"i i i i i i i i p * + e i i i i i i i i i i i i i i i i i i i i i i i i y p r i p y i i r i i i i i ",
"i i i i i i i i p 8 8 r i i i i i i i i i i i i i i i i i i i i i i i i i i i i r p r i i i i i i i ",
"i i i i i i i i i i p i i i i i i i i i i i i i i i i i i i i i i i i i i i i i p r i i i i i i i i ",
"i i i i i i i i i i i i i i i i i i i i i i i i i i i i i i i i i i i i i i i i i i i i i i i i i i ",
"i i i i i i i i i i i i i i i i i i i i i i i i i i i s H D i i i i i i i i i i i i i i i i i i i i ",
"i i i i i i i i i i i i i i i i i i i i i i i i i i i p ) D 8 r i i i i i i i i i i i i i i i i i i ",
"i i i i i i i i i i i i i i i i i i i i i i i i i i i i s 2 o 2 s i i i i i i i i i i i i i i i i i ",
"i i i i i i i i i i i i i i i i i i i i i i i i i i i i i q , w r r i i i i i i i i i i i i i i i i ",
"i i i i i i i i i i i i i i i i i i i i i i i i i i i i i i i i i r i i i i i i i i i i i i i i i i "
};
