/* XPM */
static char *aGVybzM_[] = {
/* columns rows colors chars-per-pixel */
"50 50 243 2 ",
"   c #010100",
".  c #090804",
"X  c #0C0D0C",
"o  c #150B06",
"O  c #031706",
"+  c #1C110B",
"@  c #19150B",
"#  c #110F11",
"$  c #121312",
"%  c #1B1813",
"&  c #26140B",
"*  c #291B13",
"=  c #321E13",
"-  c #062609",
";  c #093A0B",
":  c #162D14",
">  c #0A3C13",
",  c #2F2F0E",
"<  c #1C1F22",
"1  c #132329",
"2  c #2D2F27",
"3  c #282928",
"4  c #363936",
"5  c #49291A",
"6  c #502D10",
"7  c #532D1D",
"8  c #59331B",
"9  c #632C12",
"0  c #673519",
"q  c #6E3D1C",
"w  c #763B1D",
"e  c #743D1D",
"r  c #483427",
"t  c #593622",
"y  c #713F20",
"u  c #114315",
"i  c #0E541A",
"p  c #175C1C",
"a  c #2D491A",
"s  c #007A0D",
"d  c #0D7F0D",
"f  c #12641C",
"g  c #2B6C1B",
"h  c #31781D",
"j  c #165423",
"k  c #31502F",
"l  c #0C6421",
"z  c #126D23",
"x  c #0C7324",
"c  c #0A7827",
"v  c #0D7C29",
"b  c #167B26",
"n  c #127B2A",
"m  c #2F6E25",
"M  c #554D12",
"N  c #68431D",
"B  c #75411E",
"V  c #745A19",
"C  c #504D2F",
"Z  c #6A4626",
"A  c #754223",
"S  c #794825",
"D  c #70542D",
"F  c #4E7326",
"G  c #616C34",
"H  c #2C5377",
"J  c #4B4E46",
"K  c #6B564A",
"L  c #666C58",
"P  c #425264",
"I  c #5E696A",
"U  c #656965",
"Y  c #71766F",
"T  c #835213",
"R  c #875729",
"E  c #89572D",
"W  c #8A5B35",
"Q  c #966926",
"!  c #8E6E3C",
"~  c #966837",
"^  c #9B6D3A",
"/  c #9A723D",
"(  c #A4752C",
")  c #A2783C",
"_  c #875C41",
"`  c #9A6C44",
"'  c #9E7242",
"]  c #9E744A",
"[  c #886F54",
"{  c #A27642",
"}  c #A47943",
"|  c #A77C48",
" . c #A77C55",
".. c #0D8516",
"X. c #16881C",
"o. c #2E851F",
"O. c #0E822B",
"+. c #198428",
"@. c #1C9424",
"#. c #248926",
"$. c #378826",
"%. c #26932C",
"&. c #29962B",
"*. c #349C2C",
"=. c #399B28",
"-. c #2C9832",
";. c #38973F",
":. c #339E39",
">. c #3CA129",
",. c #3BA429",
"<. c #2CA535",
"1. c #36A43C",
"2. c #67A018",
"3. c #528E28",
"4. c #7C8835",
"5. c #6C9333",
"6. c #42A629",
"7. c #44AC2A",
"8. c #4DA92C",
"9. c #3CA541",
"0. c #508D53",
"q. c #43A948",
"w. c #4BAF4F",
"e. c #47B54D",
"r. c #4DAE51",
"t. c #50AF54",
"y. c #4DB352",
"u. c #4EBB55",
"i. c #52B355",
"p. c #55B758",
"a. c #59B35C",
"s. c #5D9261",
"d. c #6F8D6F",
"f. c #669967",
"g. c #5FAC62",
"h. c #5EB762",
"j. c #66A968",
"k. c #65B569",
"l. c #69A773",
"z. c #76A876",
"x. c #6EB471",
"c. c #75B777",
"v. c #4CC454",
"b. c #51C056",
"n. c #53C459",
"m. c #58C05F",
"M. c #55CE5E",
"N. c #5DC462",
"B. c #5FCD64",
"V. c #5BD263",
"C. c #62CA68",
"Z. c #64D56B",
"A. c #70CE76",
"S. c #6DE376",
"D. c #75E57C",
"F. c #A6921E",
"G. c #AFB416",
"H. c #878539",
"J. c #B4922B",
"K. c #AB8539",
"L. c #B28C39",
"P. c #B79435",
"I. c #D0BD1D",
"U. c #C5AB27",
"Y. c #CBB623",
"T. c #D4BC26",
"R. c #E6BF3E",
"E. c #B3C819",
"W. c #BCD613",
"Q. c #DBD40C",
"!. c #D9C71A",
"~. c #E8DE0F",
"^. c #E7DB13",
"/. c #DCEA05",
"(. c #F2EC09",
"). c #F7F307",
"_. c #FEFD01",
"`. c #ECE312",
"'. c #F3E912",
"]. c #DAC622",
"[. c #E9CB31",
"{. c #8D8D58",
"}. c #B78A49",
"|. c #AA8356",
" X c #B38E52",
".X c #8E9D69",
"XX c #939966",
"oX c #B48D64",
"OX c #AE9067",
"+X c #BA9469",
"@X c #ABB179",
"#X c #C99949",
"$X c #D09F4E",
"%X c #DAAC49",
"&X c #DAA755",
"*X c #E5B848",
"=X c #E1AA56",
"-X c #E8B356",
";X c #C29D6E",
":X c #C8A57A",
">X c #E3B86F",
",X c #F0C877",
"<X c #077EA3",
"1X c #637C93",
"2X c #65A78B",
"3X c #73B2B7",
"4X c #7BED82",
"5X c #7DF385",
"6X c #54C7B8",
"7X c #7CC1A4",
"8X c #05C6FF",
"9X c #5FCEEA",
"0X c #878986",
"qX c #B59E94",
"wX c #8EA985",
"eX c #B3A98F",
"rX c #B1B4AD",
"tX c #CCAB82",
"yX c #D0B289",
"uX c #D3B38A",
"iX c #DAB88D",
"pX c #D7BA92",
"aX c #DBBB92",
"sX c #E1BF94",
"dX c #8DCF8E",
"fX c #AFD390",
"gX c #83F58B",
"hX c #A2D9AC",
"jX c #DEC398",
"kX c #E3C69C",
"lX c #CED0A4",
"zX c #E7CDA4",
"xX c #EBD3AA",
"cX c #EDDAB2",
"vX c #F3DDB4",
"bX c #F8E4B9",
"nX c #FEE8BE",
"mX c #BEBEC0",
"MX c #CECDCB",
"NX c #DEE6D9",
"BX c #FDEBC2",
"VX c #FFF2CA",
"CX c #F9FAFB",
/* pixels */
"w.u.V.5X5Xw.w.w.y.w.w.w.w.w.w.w.w.y.J   > v x x x x x x v -   d.w.w.w.w.w.w.w.w.w.w.n.M.M.5X5Xp.w.w.",
"u.e.1.B.Z.w.w.w.w.w.w.w.w.w.w.w.k.l.k O i @.+.+.+.+.+.+.+.u - L x.w.w.w.w.w.w.w.w.w.u.n.M.S.S.Z.m.w.",
"n.<...1.w.w.w.w.w.w.y.w.w.w.w.h.<   l v %.6.6.6.6.6.6.6.7.@.O.>   U w.r.w.w.w.w.w.w.w.y.V.M.V.5XZ.w.",
"@.&.:.q.w.w.w.w.r.N.D.y.w.w.a.k.< . l v %.>.>.>.>.>.>.>.>.+.c u   I w.r.w.w.w.w.w.w.y.9.@.@.<.Z.B.y.",
"..-.w.w.w.w.w.q.9.B.4Xi.e.h.2 2 l x v v n +.+.n n b O.b n n v x x j < J w.w.w.w.w.w.w.9...s ..v.u.w.",
"w.w.w.w.w.w.y.1.s -.r.r.w.k.$ O n n n n n v n n v +.n n O.n n +.+.i   2 w.w.w.w.w.w.w.w.w.....b.b.w.",
"w.w.w.w.w.w.w.q.:.9.w.t.J k p f &.*.*.*.*.*.*.*.*.*.*.-.*.*.*.*.,.#.f j 4 J w.w.w.w.w.w.w.1.-.@.:.w.",
"w.w.w.w.w.w.w.w.w.w.w.g.  - n +.=.8.>.>.=.>.=.6.6.,.6.>.>.>.6.6.6.&.v x   X w.w.w.w.w.w.w.w.q.X.-.w.",
"w.w.w.w.w.w.w.w.w.w.w.j.  - &.$.4.! E.W.W.W.G.H.4.4.H.E.Q.F.5.4.H.5.&.o.  $ a.w.w.w.w.w.w.w.w.w.w.w.",
"w.C.S.p.w.w.w.w.w.w.w.j.  - 6.8.|.{ ^._._._.!.{ } ) ) (._.P.{ |.| 4.6.$.  # j.r.w.w.w.w.w.w.w.w.w.w.",
"r.Z.gXN.i.w.w.w.w.h.j.s.> a 5.5./ / Q._.~.!.I.U.U.| } (._.!.U.P.} H.5.3.> > d.l.w.w.w.w.w.w.w.w.w.w.",
"w.n.Z.D.D.w.w.w.w.d.  - O.h K./ ) / ^._.U.` U._.^.{ ) (._._._.Y.) } ) {.+.v O . k.w.w.w.w.w.w.w.w.w.",
"w.u.M.V.V.M.i.C.4Xd.. : g F }.}.P.P.[.).].L.Y.`.^.P.P.`.'.`.`.T.P.K.} ! m g @ % .Xe.e.i.y.p.w.w.w.w.",
"r.e.v.M.M.{.) @XfX[ q N N W &X%X)._.R.=X[._.!.} P.).).*X&X}./ !._.!.) ^ Z B N y OX@XXX' .Xh.w.w.w.w.",
"r.1.@.e.v.] / tXjX|.S S B R R.[.`.(.[.-X].).T.' P.)._.%X&X}.] T.).!.L.( B B D E OX@XXX( XXa.w.w.w.w.",
"w.-...e.v.R B jXnXvXcXyX~ J.(.(.P.K.^.).!.L.) ' P._.).L.} ;XyX+XK.U.(.^./ ' kXfXfXfXXXq Y h.w.r.w.w.",
"w.w.w.w.w.K Z pXBXBXBXsX' J.).'.}.' ^._.Y.{ } ' P.).(.) | :XiX+X` U.).`.) | cXlXfXhX@XN {.A.r.r.w.w.",
"w.w.w.w.w.y.j.|.W ;XkXqXA R P.P.#X$X'._.).~.].&X#XQ Q ;XtXzXbX:X` #X-X*X} } uXjXXXW .XA.wXy.r.r.w.w.",
"w.w.w.w.w.w.&.W 9  .sX .9 A ) | &X=X'._._._.'.-X#X0 0 :XuXcXVXtX~ }.-X&X{ } :XpX~ 9 eXm.y.y.w.w.w.w.",
"w.w.w.w.w.w.w.wXqX3X6Xz.I.F.R E &X&XR.[.T.U.J.( ^ |.oXzXxXbXBXaX;X#X~ ( T.!.7X3XqXqXdX5XM.y.w.w.w.w.",
"w.w.w.w.w.w.w.w.hX9X8X6X_.Q.q B $X&X&X=X#X| W 9 D yXiXnXBXBXBXxXpX+X9 T ).).6X8X3X9.V.Z.u.e.w.w.w.w.",
"w.w.w.w.w.w.w.w.g.3X<Xl._.Q.R E >X,X&X$X| W ~ `  .kXkXaXaXaXsX:XOX| R Q )./.g.<X7Xv.n.b.w.y.w.w.w.w.",
"w.w.w.w.w.w.w.w.w.U   M _.~.) |.bXBXoX^ E 9 ` aXkXBXbX| ^ / ^ R q R |.L._.(., o z.s 1.w.w.w.w.w.w.w.",
"w.w.w.w.w.w.w.w.w.s.  M ).^.~ ] xXvX:X X ._ |.aXkXnXbX+XoXoXoX` D W Q K.(.`., . f.-.q.w.w.w.w.w.w.w.",
"w.w.w.w.w.w.w.w.w.0.  C *X#XB S tXpXvXBXBXbXbXnXnXnXnXBXBXbXBXzXuX Xw R *X%X= . l.w.w.w.w.w.w.w.w.w.",
"w.w.w.w.w.w.w.w.r.t.< D #XL.q Z :X:XxXbXvXbXbXBXnXnXnXbXvXbXvXzXyXoX0 S #XL.r 2 l.w.y.w.w.w.w.w.w.w.",
"w.w.w.w.w.r.w.w.r.;.-.wX@ + . o Z S ] |.|.] :XVXnXnXvX X|.|.|.~ S 8 . . + * wXN.w.w.w.w.w.w.w.w.w.w.",
"w.w.w.w.w.w.w.w.r.#.s wX      o 0 e ~ } ' / ;XBXnXnXvX ./ ' ' R q 5       $ 2Xu.w.w.w.w.w.w.w.w.w.w.",
"w.w.r.e.w.w.w.1.s s s gXrX0XX o ~ ~ yXzXzXkXxXnXnXnXnXzXkXkXzX+X^ Z   3 rXMXi.w.w.w.w.w.w.w.w.w.w.w.",
"w.r.r.m.C.C.p.q.@.@.X.S.S.rX$ o / }.xXVXBXnXBXnXnXnXnXBXVXVXVXuX| D   2 CXw.w.w.w.w.w.w.w.w.w.w.w.w.",
"w.w.u.D.gXgXZ.M.v.y.q.4XY U u a D W |.OXuXxXxXxXkXzXzXxXzXeX+X] R M > j Y 0Xa.w.w.w.w.w.w.w.w.w.w.w.",
"r.1.&.1.v.Z.V.M.V.p.i.z.  - x b B w 0 0  .sXiXiXiXiXiXiXiXW 0 q B C n l   . k.w.p.S.p.w.w.w.w.w.w.w.",
"w.*.....#.u.n.M.M.A.wXU 1 4 l.f.C 8 M C L .XXXXXXXXXXXXX.XG C M 5 C x.s.% % d.z.B.5Xy.q.r.w.w.w.w.w.",
"w.w.q.b.n.M.u.e.M.Y   1 H 1XCXNXa u c O.v +.b b c v n x b b O.f ; Y CXNX5 5 X X A.V.@.X.w.w.w.w.w.w.",
"w.w.w.u.n.M.p.C.c.K o 3 P I rXrXa , f v c v v n v v v v O.v c p : U mXqXt 7 & & j.1.%.:.b.u.u.b.v.u.",
"w.w.w.w.e.M.M.4 . 5 q y y 7 X # 0 A g v n v c v v v v v c c O.C B 5 X $ y y y y &   r.y.V.M.M.V.M.M.",
"w.w.w.y.w.w.y.4   5 S y S t . X 0 B g x x b b b b b o.b z b +.F B 6 . @ A A S S *   h.V.M.V.M.V.V.M.",
"w.w.w.w.w.w.i.4   [ uXpXvXqX> u 3.8.G N N 8 F./././.Q.V N Z N G 6.o.; k xXxXuXtX4   h.M.M.<.<.&.<.-.",
"w.w.w.w.w.w.w.k   [ aXzXVXrXu u =.6.V w B w F.)._._.(.T w y w F 7.o.; k bXBXkXaXC   k.M.v.X.s s s s ",
"w.w.w.w.w.w.w.h.dXY r C K C @ - b #.3.F F m F 2.2.2.2.m m F 3.F #.p O - C J C r f.C.M.v...s d 1.9.8.",
"w.w.w.w.w.w.y.y.Z.0.          O x O.*.7.#.v v c c c c v v *.7.&.v j           . j.u.u.e.-.-.:.w.w.w.",
"w.w.w.w.w.w.w.w.w.;.F f.l.U X   > > b *.%.&.%.%.%.%.%.&.%.%.&.f > -   % f.f.f.s.t.w.w.w.w.w.w.w.w.w.",
"w.w.w.w.w.w.w.w.w.9.:.w.w.x.$       l v &.8.7.7.7.7.7.7.7.#.n ;       3 y.w.w.w.w.w.r.w.w.w.w.w.w.w.",
"w.w.w.w.w.w.w.w.w.w.w.w.j.d.= * & + > i p g h g g g g g g p i : + & & 5 j.j.w.w.w.w.w.w.w.w.w.w.w.w.",
"w.w.w.w.w.w.w.w.w.w.y.g.  + e e 7 5 o                         * 5 t w 0 . X i.w.w.w.w.w.w.w.w.w.w.w.",
"w.w.w.w.w.w.w.w.w.w.w.j.  & y y 7 7 & . .   $ 3 3 2 3 X   . . = 7 t A q . $ i.w.w.w.w.w.w.w.w.w.w.w.",
"w.w.w.w.w.w.w.w.w.w.w.j.  + y e y y 7 5 &   U g.a.a.x.<   = 5 0 A e A 0   $ t.w.w.w.w.w.w.w.w.w.w.w.",
"w.w.w.w.w.w.w.w.w.w.w.j.# * q q q y 5 5 * X U p.w.e.g.4 # = 5 8 e e e 8 X 3 a.w.w.w.w.w.w.w.w.w.w.w.",
"w.w.w.w.w.w.w.w.w.w.w.i.k.z.* o o o o o U c.c.w.w.w.i.c.c.J . o o o o 2 k.a.r.w.w.w.w.w.w.w.w.w.w.w.",
"w.w.w.w.w.w.w.w.w.w.w.w.w.z.X           Y t.w.w.w.w.w.i.g.J           3 r.r.w.w.w.w.w.w.w.w.w.w.w.w."
};
