/* XPM */
static char *aGVybzI_[] = {
/* columns rows colors chars-per-pixel */
"50 50 242 2 ",
"   c #010100",
".  c #070904",
"X  c #170F08",
"o  c #051808",
"O  c #161716",
"+  c #2C180E",
"@  c #2C1910",
"#  c #341B12",
"$  c #052609",
"%  c #063409",
"&  c #192A11",
"*  c #0A3712",
"=  c #163713",
"-  c #2B2617",
";  c #332713",
":  c #292827",
">  c #342C28",
",  c #3A3329",
"<  c #343533",
"1  c #3B3C39",
"2  c #4C2711",
"3  c #482818",
"4  c #512C1A",
"5  c #5A361D",
"6  c #662F14",
"7  c #683619",
"8  c #6C3A1D",
"9  c #733D1D",
"0  c #773D1E",
"q  c #503A2B",
"w  c #6A3D22",
"e  c #084A16",
"r  c #1A4111",
"t  c #154914",
"y  c #0E571B",
"u  c #1E561C",
"i  c #165918",
"p  c #007A0D",
"a  c #2A741B",
"s  c #354233",
"d  c #156A20",
"f  c #097523",
"g  c #0C7A26",
"h  c #0D7B29",
"j  c #197A27",
"k  c #157A29",
"l  c #20792D",
"z  c #31712B",
"x  c #5C461F",
"c  c #67431E",
"v  c #78421D",
"b  c #6D521B",
"n  c #50502C",
"m  c #664724",
"M  c #7A4422",
"N  c #794725",
"B  c #77532E",
"V  c #52782A",
"C  c #7D602D",
"Z  c #32474D",
"A  c #255562",
"S  c #4A4A4A",
"D  c #50514A",
"F  c #575756",
"G  c #4B714B",
"H  c #596858",
"J  c #6D6D52",
"K  c #676867",
"L  c #677666",
"P  c #787A77",
"I  c #885B1F",
"U  c #8F7716",
"Y  c #834E25",
"T  c #875528",
"R  c #875834",
"E  c #8F602C",
"W  c #966738",
"Q  c #9D7139",
"!  c #A4793D",
"~  c #835941",
"^  c #8F6A4A",
"/  c #9C7344",
"(  c #A27543",
")  c #A37A42",
"_  c #A77D46",
"`  c #A17A55",
"'  c #857569",
"]  c #0D8516",
"[  c #16881C",
"{  c #0D812A",
"}  c #198728",
"|  c #1C9325",
" . c #268C26",
".. c #248E2C",
"X. c #27972B",
"o. c #2E952A",
"O. c #30992B",
"+. c #368930",
"@. c #2C9832",
"#. c #339E39",
"$. c #3A993E",
"%. c #3CA42A",
"&. c #3BA72C",
"*. c #2CA535",
"=. c #37A33C",
"-. c #54961B",
";. c #509029",
":. c #6B9030",
">. c #699332",
",. c #43AB29",
"<. c #55A62E",
"1. c #78A826",
"2. c #3CA742",
"3. c #4E9153",
"4. c #44A948",
"5. c #4BAF4F",
"6. c #4BB14F",
"7. c #45B94C",
"8. c #4BA751",
"9. c #53A857",
"0. c #4DB352",
"q. c #4EBB55",
"w. c #52B356",
"e. c #56B95A",
"r. c #5A8566",
"t. c #6B8A6D",
"y. c #5DB360",
"u. c #66B96A",
"i. c #70AB72",
"p. c #78BB7A",
"a. c #4BC354",
"s. c #51C056",
"d. c #53C459",
"f. c #59C35F",
"g. c #55CE5E",
"h. c #5DC962",
"j. c #5BD263",
"k. c #61C867",
"l. c #63D66A",
"z. c #6ED274",
"x. c #6DE375",
"c. c #75E67C",
"v. c #97840E",
"b. c #AF971E",
"n. c #84BC1F",
"m. c #B8A60E",
"M. c #858338",
"N. c #AA8527",
"B. c #B99A2E",
"V. c #AB8835",
"C. c #AC843C",
"Z. c #B38B3A",
"A. c #B79434",
"S. c #87B326",
"D. c #BEA026",
"F. c #CAB60D",
"G. c #C3A72A",
"H. c #CBB324",
"J. c #D1B132",
"K. c #B5C322",
"L. c #D7D00D",
"P. c #DACA18",
"I. c #E8DD0E",
"U. c #E4D517",
"Y. c #D8E705",
"T. c #EDE60C",
"R. c #F3EE08",
"E. c #F9F407",
"W. c #FEFD01",
"Q. c #F6EC12",
"!. c #ECD32A",
"~. c #AC8248",
"^. c #B98946",
"/. c #A98256",
"(. c #B88F54",
"). c #92A059",
"_. c #AC8D69",
"`. c #BA9469",
"'. c #B79674",
"]. c #92AD7C",
"[. c #AFA477",
"{. c #B5A679",
"}. c #CA984C",
"|. c #D8A84C",
" X c #D9A654",
".X c #E5B749",
"XX c #E2AD55",
"oX c #EAB558",
"OX c #C39C6F",
"+X c #C29E74",
"@X c #CAA879",
"#X c #DBB473",
"$X c #A2DB5F",
"%X c #0F3C97",
"&X c #2A5C8F",
"*X c #5872AA",
"=X c #5D989E",
"-X c #7CEE83",
";X c #7DF385",
":X c #38BCDE",
">X c #01C2FE",
",X c #33C8F2",
"<X c #54C3DC",
"1X c #858884",
"2X c gray57",
"3X c #94B294",
"4X c #ACAD93",
"5X c #8A95B1",
"6X c #98A5B3",
"7X c #AEAFAB",
"8X c #CEAC84",
"9X c #CFB085",
"0X c #D7B58B",
"qX c #D4B892",
"wX c #DBBB92",
"eX c #88C88B",
"rX c #95C797",
"tX c #83F68A",
"yX c #8DEB92",
"uX c #ABD0AC",
"iX c #BAE1BC",
"pX c #DBC29A",
"aX c #E3C49A",
"sX c #F9DC98",
"dX c #C6C5BE",
"fX c #E8CEA5",
"gX c #EBD4AC",
"hX c #F3D8AD",
"jX c #EAD8B5",
"kX c #F4DCB3",
"lX c #F8DFB5",
"zX c #FAE4BB",
"xX c #FFE8BE",
"cX c #B7DAC0",
"vX c #CED2CF",
"bX c #E5D8C7",
"nX c #D8EAD9",
"mX c #FDEBC2",
"MX c #F3E6CA",
"NX c #FDF4D2",
"BX c #FEF8E6",
"VX c #F7FAF8",
/* pixels */
"5.q.j.;X;X6.5.5.5.5.5.5.5.5.5.5.5.5.5.5.4.5.5.4.5.5.5.5.5.5.5.5.5.5.5.5.5.5.5.5.5.5.d.j.j.;Xc.s.7.6.",
"q.7.=.k.l.6.5.5.5.5.5.5.5.5.5.5.5.5.4.3.3.8.8.8.8.8.5.5.5.5.5.5.5.5.5.5.5.5.5.5.5.5.q.a.g.x.c.l.f.5.",
"d.*.] =.6.5.5.5.5.5.5.5.5.5.5.5.5.5.9.  $ f f f f f f f f o 5.5.5.5.5.5.5.5.5.5.5.5.5.0.g.g.j.tXz.6.",
"| X.#.4.5.5.5.5.5.k.c.0.5.5.5.5.5.3.G e d o.o.+.o.o.o.o.o.y y 5.5.5.5.5.5.5.5.5.5.5.5.4.| | *.l.f.6.",
"] @.5.5.5.5.5.4.2.h.-X0.5.5.5.6.3.  e h | ,.,.,.,.,.,.,.,.} g o = 0.0.5.5.5.5.5.5.5.5.2.] p ] a.q.5.",
"5.5.5.5.5.5.5.=.p @.5.5.5.5.5.0.G * y h k X.o. . . . . . .k g e * 9.5.5.5.5.5.5.5.5.6.8.5.] ] a.s.6.",
"5.5.5.5.5.5.5.4.#.2.5.6.5.5.3.  e h h h h h h h k g h h h g g { { o   4.5.5.5.5.5.5.5.5.5.$.@.| =.5.",
"5.5.5.5.5.5.5.5.5.5.5.5.5.5.G * d | ..............................t * 3.5.5.5.5.5.5.5.5.5.5.4.[ @.5.",
"5.5.5.5.5.5.5.5.5.5.5.5.3.  y h  .%.%.%.%.%.%.%.,.%.,.&.%.,.&.,.%.} { *   6.5.5.5.5.5.5.5.5.5.5.5.5.",
"5.k.x.e.5.5.5.5.5.5.5.5.G   i  .;.:.1.n.1.n.1.>.>.:.>.1.n.>.>.>.:.+...*   9.5.5.5.5.5.5.5.5.5.5.5.5.",
"5.l.tXh.w.5.6.6.5.w.w.0.F   a ,.:.( H.W.W.W.U.! Q / Z.R.E.Z.Q Q _ <.,.r   t.5.5.5.5.5.5.5.5.5.5.5.5.",
"5.e.l.c.-X5.5.6.5.z.tXz.n $ a :./ ( H.W.E.T.P.A.Z.) V.E.W.G.A.C._ >.<.u o H 9.6.5.5.5.5.5.5.5.5.5.5.",
"5.q.g.j.l.d.0.e.c.x.> . y k :._ ( / H.W.P./ D.W.U.) C.E.W.W.E.B.( ) _ V h e   L 5.5.5.5.5.5.5.6.5.5.",
"6.0.a.g.g.a.7.f.yXyX< . i j M.C.~.Z.J.E.P.C.G.R.U.Z.A.Q.Q.T.T.G.C.C.) V j r . L 5.5.5.5.5.5.5.5.5.5.",
"6.#.| 7.a.| )./.qXqXB 8 M m ~.XXU.E.!..X.XE.U.C.B.R.Q..X|.~.V.U.E.B./ R w c 7 / 5.4.5.5.5.5.5.5.5.5.",
"5.O.] 7.7.[ W / 0X0X~ Y M 9 A..X!.R.!.XX!.R.P./ A.W.E.|.|.` ~.U.R.G.V.T 0 N Y ` wX@X! 5.5.5.5.5.5.5.",
"5.5.5.5.8.y.B R gXzXjXgX`.Q P.W.H.C.H.E.L.V.C.( A.E.R.C.) @X@X(.V.P.R.G.W @XjXzXzX9Xb g.5.5.5.5.5.5.",
"5.5.5.5.0.y.B C gXjXmXmX`.Q F.E.G.( H.W.U.! ! _ A.R.I.~.~.9XwX/.( P.W.G./ 8XmXxXzXj.B 0.5.6.5.5.5.5.",
"5.5.5.5.5.5.$.].^ T 8XqXW 0 Q Z.}. X!.W.E.T.U.|.}.I E @X9XgXzX(.(  XoX^.Q `.aX`.B 7.q.e.0.6.5.5.5.5.",
"5.5.5.5.5.5.4.p.N 9 8XqXR 6 E ! }.XX!.W.W.W.Q..X}.7 v 8X0XzXmX_.Q  XoX^./ `.wX/.7 +.j.;Xg.0.5.5.5.5.",
"5.5.5.5.5.5.5.w.4XvX<X:X$XF.U Y _ XX.X.XJ.A.N.T W '.+XgXkXxXzX0X@X( Y m.T.$X>X=X2.2.j.l.s.6.5.5.5.5.",
"5.5.5.5.5.5.5.5.0.cX,X>X$XW.v.6 ! XXXXXX}._ W 6 B 0XwXmXmXmXxXaXwXW 6 F.W.$X>X=Xu.a.a.s.6.6.5.5.5.5.",
"5.5.5.5.5.5.5.5.7.3X&XA K.W.b.R @XsX#X^._ Y W `.+XgXfXOXOXOXOX/ ^ W W F.W.S.A r.=X] =.5.5.5.5.5.5.5.",
"5.5.5.5.5.5.5.5.5.z.:   m.W.G.Q wXNX0X! W 6 R 0XaXmXkX` Q ! ! N 8 W ) P.W.v.  H rX&.4.6.5.6.5.5.5.5.",
"5.5.5.5.5.5.5.5.5.u.:   b.!.N.Y ` _./._ _ ` OXfXgXmXlX+X`.` ( Y 0 Y Y G.!.U   K uX5.5.5.5.5.5.5.5.5.",
"5.5.5.5.5.5.5.5.5.u.:   C.oXW 9 7 6 T _ }.0XwXmXmXlXlXwX0X_ ! Y 9 0 0 Z.oXE   F uX5.5.5.5.5.5.5.5.5.",
"5.5.5.5.5.5.5.5.8.4.2X1XJ B 5 ; ~ '.' K 2XbXjXmXmXmXmXbXdXP K _.`.q # m C J ' 7X0.6.5.5.5.5.5.5.5.5.",
"5.5.5.5.5.5.5.5.5. .p e.D       [.NX6X%X*XVXBXmXmXlXmXVXVX*X&XdXNXS       r.eX0.5.5.5.5.5.5.5.5.5.5.",
"5.5.5.8.5.6.5.2.p p p yX1XD :   ^ aX4X*X6XBXNXmXmXmXMXBXBX5X*XpXpXs   1 F 3Xu.5.5.5.5.5.5.5.5.5.5.5.",
"5.5.5.h.k.k.d.2.| } | x.nXVXF   m ) 8XNXmXmXmXmXzXlXmXmXlXMXmX`.Q -   i.z.e.5.5.5.5.5.5.5.6.5.5.5.5.",
"5.5.0.-XtX;Xl.g.a.q.8.h.dX7XD $ m Q `.wXaXlXlXhXhXhXkXhXlXpXqX` W > o t.3XuX0.6.6.6.5.5.5.5.5.5.5.5.",
"6.#.@.2.a.l.g.g.j.d.a.k.S . e { n 0 0 8 / wX0XwX0XwXwXqX9XN 0 0 9 a h =   P u.6.e.z.q.5.5.5.5.5.5.5.",
"6.@.] ] | 6.s.g.j.g.eX7XZ O s 3.n 7 c x C 4X{.{.{.4X{.{.[.B n x 5 G 8.r   H 7Xu.k.;X0.2.5.5.5.5.5.5.",
"6.8.8.a.d.g.0.q.g.j.1 X Z A uXVXt.% i } l l l l l } l l l j j t = 7XVX' 3 - O t.g.j.| [ 5.5.5.5.6.6.",
"6.6.6.q.a.j.s.q.u.-X: X Z A 6XvXJ & i h k h h h h h g g h { h i - 6XnX' 2 # . L q.@.@.#.q.q.q.d.s.s.",
"6.8.6.6.6.g.h.h.: O 6 6 0 w : O 2 0 z g h h h h h h k g k h k x c @ O 3 v 9 9 n & z 2.7.j.g.j.j.g.g.",
"8.6.5.5.5.5.6.w.O   9 0 N 0 @   2 v n [ k k j j j j [ j k d l x M X   4 N 0 Y 3 . 3.d.g.g.g.g.j.g.g.",
"6.6.5.5.5.5.6.y.O . '.8XfXbXH $ a <.V c m x U Y.Y.Y.L.b c c c ;.<.i * ).jXwX8XJ o 9.g.g.j.*.*.| *.X.",
"6.6.5.5.5.5.5.y.: X 4X0XjXMXL % a ,.V 0 0 8 U W.W.W.T.v v 9 9 ;.%.i % ].NXgXqX' +.y.g.g.a.[ p p p p ",
"8.6.5.5.5.5.5.e.yX3Xn < q q & . i  .a ;.V z z -.-.-.-.z z ;.;.l } % o ; q q , 4.q.h.g.a.] p ] =.2.=.",
"5.5.5.5.5.5.6.w.h.4.<   .       e { o.,.o.h { h h h h { k O.,.} k $     . . o 8.w.q.q.7.@.@.#.8.5.5.",
"5.5.5.5.5.5.5.6.0...3.3X7X7Xs   o % i  ...O.O.O.O.O.O.O.O. .} e $ .   L i.9.5.5.8.6.5.5.5.5.6.6.5.5.",
"5.5.5.5.5.5.5.5.6.2.#.5.w.p.K       * h ..,.,.,.,.,.,.,.,.} k o       i.0.5.5.5.5.5.5.5.6.6.8.6.5.5.",
"5.5.5.5.5.5.5.5.6.8.5.8.1XF q 2 # # O * * r r r r r r r = * * ; + 3 2 D H 5.5.5.5.5.5.5.6.8.6.6.5.5.",
"5.5.5.5.5.5.5.5.5.5.5.5.S   3 N 5 4 @         .   .           # 4 w M #   9.5.5.5.5.5.5.8.5.5.5.5.5.",
"5.5.5.5.5.5.5.5.5.5.5.5.S   4 v w 7 3 O X   > *X=X' K X   X + 4 5 w 0 #   5.5.5.5.5.5.5.6.5.5.5.5.5.",
"5.5.5.5.5.5.5.5.5.5.5.5.S   4 M 0 M w 4 #   D VXeXiXvXO   3 4 9 M 0 v + . 9.5.5.5.5.5.5.5.5.5.5.5.5.",
"5.5.5.5.5.5.5.5.5.5.5.6.t.F q 2 2 2 # # , F ' iXw.w.nXK F > @ 3 2 2 4 n G 5.5.5.5.5.5.5.5.5.5.5.5.5.",
"5.5.5.5.5.5.5.5.5.5.5.5.5.e.F           D VXVX0.5.5.w.uXrX<           i.5.5.5.5.5.5.5.5.5.5.5.5.5.5.",
"5.5.5.5.5.5.5.5.5.5.5.5.5.w.P < 1 1 Z q P nX5.5.5.5.5.5.p.F < 1 1 1 1 9.5.5.5.5.5.5.5.5.5.5.5.5.5.5."
};
