/* XPM */
static char *aGVybzE_[] = {
/* columns rows colors chars-per-pixel */
"50 50 247 2 ",
"   c #010101",
".  c #080B05",
"X  c #130D07",
"o  c #051A09",
"O  c #181818",
"+  c #28180D",
"@  c #341E0D",
"#  c #2A1910",
"$  c #351D14",
"%  c #062B0A",
"&  c #08360C",
"*  c #18330F",
"=  c #0B3711",
"-  c #2E2F10",
";  c #382416",
":  c #282A29",
">  c #32322B",
",  c #383835",
"<  c #492816",
"1  c #522C1C",
"2  c #483217",
"3  c #54321A",
"4  c #652F11",
"5  c #673519",
"6  c #6D3A1D",
"7  c #733C1D",
"8  c #793F1F",
"9  c #4F3A2A",
"0  c #643B22",
"q  c #723F20",
"w  c #13440F",
"e  c #0B4515",
"r  c #1A4312",
"t  c #0B571C",
"y  c #165917",
"u  c #245417",
"i  c #007A0D",
"p  c #0D7E0D",
"a  c #16651D",
"s  c #2C761C",
"d  c #2F4D31",
"f  c #0A7724",
"g  c #0D7B29",
"h  c #197926",
"j  c #137B29",
"k  c #306E2A",
"l  c #207A2F",
"z  c #554E1F",
"x  c #67431E",
"c  c #76431D",
"v  c #6A5716",
"b  c #6B6105",
"n  c #5A4721",
"m  c #494F31",
"M  c #55493C",
"N  c #654823",
"B  c #744223",
"V  c #7A4422",
"C  c #7A4A27",
"Z  c #75552F",
"A  c #597729",
"S  c #487130",
"D  c #787B3A",
"F  c #365C5C",
"G  c #0A5166",
"H  c #494A49",
"J  c #515253",
"K  c #6B5D54",
"L  c #4E714D",
"P  c #7A6B4E",
"I  c #686A68",
"U  c #72716C",
"Y  c #797B79",
"T  c #93681C",
"R  c #927212",
"E  c #88562A",
"W  c #835632",
"Q  c #996A2E",
"!  c #966836",
"~  c #A67D26",
"^  c #A57A3D",
"/  c #8E6A4B",
"(  c #9E7243",
")  c #997659",
"_  c #A17642",
"`  c #A57A41",
"'  c #A67A47",
"]  c #A47C59",
"[  c #9F7C6A",
"{  c #0D8516",
"}  c #16871C",
"|  c #0E812B",
" . c #198628",
".. c #1C9424",
"X. c #278D26",
"o. c #248D2B",
"O. c #28972B",
"+. c #2D952A",
"@. c #32912A",
"#. c #2C9832",
"$. c #349E3A",
"%. c #3DA42A",
"&. c #3FAB28",
"*. c #2CA535",
"=. c #37A53C",
"-. c #54961B",
";. c #568E29",
":. c #4A9729",
">. c #689331",
",. c #6D9032",
"<. c #44A729",
"1. c #44AC2A",
"2. c #5BA42F",
"3. c #79A928",
"4. c #3CA641",
"5. c #568758",
"6. c #469852",
"7. c #6F9253",
"8. c #43A848",
"9. c #4BAF4F",
"0. c #4BB14F",
"q. c #45B94C",
"w. c #49A551",
"e. c #53AB57",
"r. c #4DB353",
"t. c #4FBB55",
"y. c #52B456",
"u. c #55BC59",
"i. c #6AB15A",
"p. c #71876F",
"a. c #5EAF60",
"s. c #6CA56D",
"d. c #67B86B",
"f. c #78B97A",
"g. c #4CC454",
"h. c #51C056",
"j. c #53C459",
"k. c #58C05F",
"l. c #55CD5E",
"z. c #5EC862",
"x. c #5BD263",
"c. c #61C968",
"v. c #63D66A",
"b. c #73CE78",
"n. c #6CE375",
"m. c #75E57C",
"M. c #9BA919",
"N. c #83BB1F",
"B. c #B5952A",
"V. c #AC8738",
"C. c #B28C38",
"Z. c #B89634",
"A. c #BEA229",
"S. c #CEBA19",
"D. c #C09F2F",
"F. c #C6AD26",
"G. c #CFB824",
"H. c #E3BD3C",
"J. c #D1CC0E",
"K. c #DAC81A",
"L. c #E6DA0C",
"P. c #E3D615",
"I. c #DAE904",
"U. c #EBE30D",
"Y. c #EFEA0B",
"T. c #F2ED09",
"R. c #F9F407",
"E. c #FEFD01",
"W. c #F1E812",
"Q. c #F4E912",
"!. c #D1C92A",
"~. c #F1DC23",
"^. c #E6C338",
"/. c #E5E725",
"(. c #AC8344",
"). c #B88948",
"_. c #B38A56",
"`. c #8D8975",
"'. c #AD8E6A",
"]. c #BA9468",
"[. c #B99A78",
"{. c #B3A779",
"}. c #C6954C",
"|. c #D9AE44",
" X c #DAA554",
".X c #E5B947",
"XX c #E1AB55",
"oX c #E7B356",
"OX c #C49F6D",
"+X c #C9A67A",
"@X c #143D99",
"#X c #1C459D",
"$X c #2C5A91",
"%X c #295298",
"&X c #6B7590",
"*X c #6A7EA9",
"=X c #76A192",
"-X c #738DA8",
";X c #76C988",
":X c #7CEE83",
">X c #7DF385",
",X c #5DB9D1",
"<X c #0AC4F6",
"1X c #37C1ED",
"2X c #63CAE0",
"3X c #898989",
"4X c #969992",
"5X c #AA998D",
"6X c #93A794",
"7X c #A8A999",
"8X c #97A1AF",
"9X c #AAABAA",
"0X c #B6B8B7",
"qX c #CCAE8C",
"wX c #CEB189",
"eX c #D7B68C",
"rX c #DBBC93",
"tX c #DABF99",
"yX c #E1BF95",
"uX c #C8BCB7",
"iX c #93CE95",
"pX c #A8C39D",
"aX c #83F78B",
"sX c #ACCFAC",
"dX c #DBC099",
"fX c #E1C49A",
"gX c #D4C9B6",
"hX c #E4CAA2",
"jX c #EBD3AA",
"kX c #F2D7AC",
"lX c #E9D8B2",
"zX c #F5DCB2",
"xX c #F4DFB8",
"cX c #F8E4BA",
"vX c #FFE8BE",
"bX c #8EA5C9",
"nX c #C8C9C7",
"mX c #D7D7D7",
"MX c #D3E7D3",
"NX c #FEECC2",
"BX c #FCEECB",
"VX c #FCF1D3",
"CX c #DAE1E9",
"ZX c #E7EBEA",
"AX c #FFF8E6",
"SX c #F7FCF5",
"DX c #FEFEFE",
/* pixels */
"9.t.x.>X>X9.9.9.9.9.9.9.9.9.9.9.9.r.9.9.9.9.9.9.9.9.9.9.9.9.9.9.9.9.9.9.9.9.9.9.9.9.j.x.l.>X:Xy.r.9.",
"t.q.=.c.v.9.9.9.9.9.9.9.9.9.9.9.9.L L 6.w.w.6.w.w.w.9.0.9.9.9.9.9.9.9.9.9.9.9.9.9.9.t.h.x.n.n.v.u.9.",
"j.*.{ =.0.9.9.9.9.9.9.9.9.9.9.9.9..   f f f f f f f f % d y.9.9.9.9.9.9.9.9.9.9.9.9.9.r.l.l.v.aXv.9.",
"..O.$.8.9.9.9.9.9.z.m.y.9.9.9.5.L t t X.+.+.+.@.@.X.+.h t k 9.9.9.9.9.9.9.9.9.9.9.9.r.4.....*.x.z.r.",
"{ #.9.9.9.9.9.8.4.z.:Xy.0.r.0.  o g  .%.1.<.1.<.<.<.<.O.| e   9.9.9.9.9.9.9.9.9.9.9.9.4.{ i { g.u.9.",
"9.9.9.9.9.9.9.=.i #.9.9.9.e.5.= e g | o.+.X.X.X.X.X.X. .g t & L 9.9.9.9.9.9.9.9.9.9.9.9.9.{ { g.t.9.",
"9.9.9.9.9.9.9.8.$.8.9.9.9.  % g | g g g f g g g j g g g g g | e   9.9.9.9.9.9.9.9.9.9.9.9.4.#...=.9.",
"9.9.9.9.9.9.9.9.9.9.9.9.5.= w X.o.o.o.o.o.o. .o.o.o.O.o.o...O.a & d 9.9.9.9.9.9.9.9.9.9.9.9.8.} #.9.",
"9.9.9.9.9.9.9.9.9.9.9.  &  . .<.&.&.&.&.%.%.&.%.%.%.$.%.%.%.<.O.g t   r.9.9.9.9.9.9.9.9.9.9.9.9.9.9.",
"9.c.n.u.9.9.9.9.9.9.s.  =  .@.,.>.3.N.3.3.>.>.>.>.3.N.3.>.>.>.:.+.a   , 9.9.9.9.9.9.9.9.9.9.9.9.9.9.",
"0.v.aXd.u.9.9.0.r.y.s.  r 1.>.` Z.E.E.E.E.V.( ^ ` P.E.F.( _ ^ ,.1.s   , 9.9.9.9.9.9.9.9.9.9.9.9.9.9.",
"0.h.v.m.m.9.9.0.d.iXY o u 2.,.' C.R.E.U.L.A.Z.` _ P.E.K.Z.C.' ,.2.k o > f.e.9.9.9.9.9.9.9.9.9.9.9.9.",
"9.t.l.v.v.j.q.k.U   = | ;.` ` _ B.E.T.V.V.U.R.C.( K.E.E.E.S.( ` ` ,.j a . , 9.9.9.9.9.9.9.9.9.9.9.9.",
"9.q.g.j.l.g.t.iXU   * h A (.' C.Z.Q.Y.C.Z.P.W.A.V.~.R.R.W.G.V.V.` D l y . , d.9.9.9.9.9.9.9.9.9.9.9.",
"9.=...q.i.D {.dX) 5 6 x ! oXH.R.Q.|..XQ.W.Z.V.P.R.^.XX).^ G.R.G.( ! B 0 5 C wXi.9.9.9.9.9.9.9.9.9.9.",
"9.#.{ q.i.Q +XeX] C C 7 Q ^.^.T.W..X.XW.U.V.` U.E.H. X}.' G.R.G.C.Q c q Z ! eXeX^ u.r.0.9.9.9.9.9.9.",
"9.9.9.9.7.7 qXNXxXjXwX! F.R.P.~ Z.Q.Y.Z.^ ` ^ U.E.D.` ].wX].V.S.T.K.! _.lXlXcXjXE q v.z.9.9.9.9.9.9.",
"9.9.9.9.7.0 qXxXcXNXeX! A.Q.K.^ C.E.T.C.^ ( ^ L.T.Z.' OXyX].( F.R.P.( ].cXBXcXgXZ C h.r.9.9.9.9.9.9.",
"9.9.9.9.e.f._.E ].tX'.7 E C.). X|.E.E.Y.U.H. XQ E ].wXfXvXwX( }..X X( _.dXwXW / sXq.u.z.t.0.9.9.9.9.",
"9.9.9.9.9.y.) 3 ] tX] 4 E ` ).XX.XE.E.E.E.H. XE 4 ].eXjXNXqX! }.oX}.( (.wX+Xc Z ;Xi x.:Xl.0.9.9.9.9.",
"9.9.9.9.9.0.pXuX2X1X;XK.M.8 Q XXXX^.H.Z.Z.T E '.].hXzXcXNXfX+X_.E ~ L.!.,X,XuXgXd.=.x.v.t.0.9.9.9.9.",
"9.9.9.9.9.9.9.MX2X<X;XE.S.5 E XXoXoX X' ^ 8 6 [.eXkXNXNXNXkXyX_.4 R E./.<X1XCXi ..g.j.j.0.0.9.9.9.9.",
"9.9.9.9.9.9.0.sX-XG 7.E.J.! Z n Z ).).W W _.].hXkXjXfX+X] K M Z ! B.E.J.G $XmXi i i $.9.0.9.9.9.9.9.",
"9.9.9.9.9.9.0.iXI   b E.K.` Z   + ( ^ B 8 +XeXzXNXfXeX/ 5 $   3 ' F.E.J.o > mX+.#.*.8.9.9.9.9.9.9.9.",
"9.9.9.9.9.9.9.b.I   v ~.F.E / 3X3XI I B C tXkXzXNX].( K J &X3X[ E ~ ~.F.X : mX9.9.9.9.9.9.9.9.9.9.9.",
"9.9.9.9.9.9.9.f.I   N oXC.6 [ DXCX#X%X0 B hXNXvXNX/ 1 H #XbXDXqX5 Q oX).. : mX0.9.9.9.9.9.9.9.9.9.9.",
"9.9.9.9.9.9.9.e.9X`.U Z N @ P VXmX#X$X5X5XNXvXvXxXqX5X&X@XbXAX5X@ 2 C Z Y 3X`.q.9.9.9.9.9.9.9.9.9.9.",
"9.9.9.9.9.9.9.9.9.iX4X.     M NXnX#X%XZXSXBXvXvXNXAXDXbX@X8XBX[       > ZX8.g.q.9.9.9.9.9.9.9.9.9.9.",
"9.9.9.0.9.9.9.=.i 6.9XJ ,   9 yXqX*X8XmXAXNXvXvXNXVXAX0X*X6XfXP   O J =XMX9.9.9.9.9.9.9.9.9.9.9.9.9.",
"9.9.r.z.c.c.u.8...f.ZXDX4X  ; ` '.NXNXvXxXNXNXvXNXvXNXvXVXwX` n   J DXsX9.9.9.9.9.9.9.9.9.9.9.9.9.9.",
"9.9.t.m.aXaXx.l.j.;XmX0XY o - ! ' rXfXzXzXzXkXzXkXkXcXhXdX'.! n o H nXnXe.9.9.9.9.9.9.9.9.9.0.9.9.9.",
"9.$.O.=.t.v.x.l.x.b.3X. = j k q 7 7 C wXrXeXrXeXrXeXrX/ 6 c c m f t . , MX9.9.r.u.v.u.9.9.9.9.9.9.9.",
"9.#.{ { ..y.h.l.b.sX&XO : 6.L 3 N n Z {.{.{.{.{.{.{.5X! n n 5 M 6.k . > 0XpX0.r.c.>Xg.4.r.0.0.0.9.9.",
"9.9.9.u.l.l.0.t.Y X : F -XSX7X* w h j l l l l l l l  .| h a & p.SX0X< ; O 9 u.l.l.x...} 0.0.w.0.9.r.",
"9.9.9.t.u.l.c.;XK X : F &XmX6X* r | g g f g g g g g g g g y * U mX9X1 ; X > d.l.4.*.O.4.h.g.g.u.g.h.",
"9.9.9.9.9.l.L X 1 0 0 q 2 O ; c n j g j g g g g g g j g f S c 2 O $ 8 q c n O H 4.{ 4.4.x.l.l.x.l.l.",
"9.9.9.9.9.9.H   < V q C 2   + B z h h j j h } h  .h h j j S c -   + B B C 0   d 0.0.j.l.l.x.l.l.l.l.",
"9.9.9.9.9.9.J   P qXtXlX`.= y :.;.x x x v J.I.I.I.R x x 6 A :.s % L lXhXqX'.X d r.g.l.l.l.*.*.#.*.O.",
"9.9.9.9.9.9.L   / tXhXBX6X& y 1.:.7 8 7 c L.E.E.R.R c c 7 A <.s % L vXzXeX5X# d u.l.l.l.g. .i i i i ",
"9.9.9.9.9.9.0.f.I > 9 n > . = } s ;.;.k k -.-.-.-.k k S ;.@.X.w . % m 9 2 H c.9.t.l.l.g.{ i p =.4.4.",
"9.9.9.9.9.9.r.y.U   X . .   % |  .&.%.| g g j g g g g O.1.o.j e     .     , t.9.r.t.t.q.#.#.#.9.9.9.",
"9.9.9.9.9.9.9.9.a.6X9X9XI   . % = o.o.#.+.O.#.#.#.+.+.O...y % o   , 9X6Xs.a.9.9.9.0.9.9.9.9.9.9.9.9.",
"9.9.9.9.9.9.9.9.9.8.$.iX4X.     o g | 1.1.1.1.1.1.1.1.O.| =       J b.y.r.0.9.9.9.9.9.9.9.9.9.9.9.9.",
"9.9.9.9.9.9.9.9.9.9.6XJ H < < # # = = * r r r r r r * * = * $ $ < 9 J p.9.9.9.9.9.9.9.9.9.9.9.9.9.9.",
"9.9.9.9.9.9.9.9.9.9.s.  @ V 6 1 $                         + 1 0 8 3   > 9.9.9.9.9.9.9.9.9.9.9.9.9.9.",
"9.9.9.9.9.9.9.9.9.9.e.  @ 8 6 0 1 + +   O I Y Y [ :   X + < 5 0 8 3   , 9.9.9.9.9.9.9.9.9.9.9.9.9.9.",
"9.9.9.9.9.9.9.9.9.9.e.  @ c 8 8 q 1 <   O mXDXDXMXJ   # 1 5 E c V 3   , 9.9.9.9.9.9.9.9.9.9.9.9.9.9.",
"9.9.9.9.9.9.9.9.9.9.y.L M < < < < $ $ H I mXr.y.MX3XJ , # @ < < < 9 L 7.9.9.9.9.9.9.9.9.9.9.9.9.9.9.",
"9.9.9.9.9.9.9.9.9.9.9.9.a.          O CXSXiX9.9.d.iXiXI           H 9.9.9.9.9.9.9.9.9.9.9.9.9.9.9.9.",
"9.9.9.9.9.9.9.9.9.9.9.9.a., 9 , , H H CX9.9.9.9.9.9.d.Y , , , , , p.0.0.9.9.9.9.9.9.9.9.9.9.9.9.9.9."
};
