/* XPM */
static char *cGl6emEz[] = {
/* columns rows colors chars-per-pixel */
"50 50 215 2 ",
"   c #743010",
".  c #5F3122",
"X  c #007A0D",
"o  c #0D7E0D",
"O  c #75521A",
"+  c #7E5539",
"@  c #727037",
"#  c #AC3117",
"$  c #893E21",
"%  c #B1282B",
"&  c #B93E36",
"*  c #C73E2E",
"=  c #C8373C",
"-  c #E32D34",
";  c #E73538",
":  c #8A451B",
">  c #9A4D1C",
",  c #85521C",
"<  c #A44C1C",
"1  c #AA5A1B",
"2  c #B6581E",
"3  c #B16A1E",
"4  c #874926",
"5  c #984726",
"6  c #885525",
"7  c #864934",
"8  c #865237",
"9  c #9B5730",
"0  c #A84925",
"q  c #A65726",
"w  c #B45E2A",
"e  c #A95A36",
"r  c #B55737",
"t  c #896629",
"y  c #976623",
"u  c #896A38",
"i  c #966F34",
"p  c #BA622D",
"a  c #BB6929",
"s  c #AD702B",
"d  c #B86633",
"f  c #B67736",
"g  c #DC463A",
"h  c #D05535",
"j  c #E3492D",
"k  c #C96A29",
"l  c #D2662E",
"z  c #CA732C",
"x  c #C36935",
"c  c #D17237",
"v  c #E7733A",
"b  c #EE2E43",
"n  c #EC3B42",
"m  c #F43746",
"M  c #845E49",
"N  c #966C54",
"B  c #8E7451",
"V  c #AC7249",
"C  c #D94A41",
"Z  c #EB464D",
"A  c #F84748",
"S  c #F8574B",
"D  c #FE4D58",
"F  c #FC5556",
"G  c #CD6E44",
"H  c #CE784A",
"J  c #FF4E60",
"K  c #0D800D",
"L  c #0D8416",
"P  c #0D8816",
"I  c #16861C",
"U  c #168B1C",
"Y  c #1C8E23",
"T  c #1C9424",
"R  c #24942A",
"E  c #269C2E",
"W  c #2A9732",
"Q  c #2D9A33",
"!  c #339D39",
"~  c #3A9A3B",
"^  c #2AA334",
"/  c #32A538",
"(  c #38A13D",
")  c #33AB3B",
"_  c #3CA441",
"`  c #3AAD41",
"'  c #68854B",
"]  c #768F53",
"[  c #40A645",
"{  c #46AA4A",
"}  c #4BAF4F",
"|  c #44B24A",
" . c #4BB14F",
".. c #45BC4C",
"X. c #58A755",
"o. c #4DB453",
"O. c #4FBC55",
"+. c #52B656",
"@. c #51BC56",
"#. c #55BC59",
"$. c #58BE5C",
"%. c #70A854",
"&. c #799762",
"*. c #5FB060",
"=. c #7CA868",
"-. c #66B666",
";. c #78B36E",
":. c #4BC354",
">. c #51C056",
",. c #53C459",
"<. c #58C25E",
"1. c #55CD5E",
"2. c #5CC561",
"3. c #5DCD63",
"4. c #5BD263",
"5. c #5FD768",
"6. c #65C867",
"7. c #62CD69",
"8. c #68D36E",
"9. c #62D969",
"0. c #72C774",
"q. c #69D670",
"w. c #6BDB72",
"e. c #71DD76",
"r. c #6CE274",
"t. c #74E37A",
"y. c #75E97C",
"u. c #8C833D",
"i. c #A78336",
"p. c #B9883B",
"a. c #B29736",
"s. c #BBA339",
"d. c #BBB535",
"f. c #C78E3A",
"g. c #D39B3B",
"h. c #CFB63C",
"j. c #E4B53E",
"k. c #8E8F4A",
"l. c #9E8754",
"z. c #8A9657",
"x. c #959655",
"c. c #A5884A",
"v. c #A89742",
"b. c #BA9644",
"n. c #B29052",
"m. c #B19A54",
"M. c #91AB4F",
"N. c #BAA64C",
"B. c #B0A954",
"V. c #AE956D",
"C. c #86AF6C",
"Z. c #B3AD6D",
"A. c #C69746",
"S. c #CE9450",
"D. c #E09C47",
"F. c #C6A646",
"G. c #D7AB49",
"H. c #CCBD4D",
"J. c #DBB949",
"K. c #C9A857",
"L. c #D9BA57",
"P. c #E9B84F",
"I. c #D3AB62",
"U. c #CEBA67",
"Y. c #EEBD61",
"T. c #CBC54B",
"R. c #DCC24C",
"E. c #DDD44B",
"W. c #DAC459",
"Q. c #EBC555",
"!. c #E9C55B",
"~. c #EFD253",
"^. c #E9D85A",
"/. c #FFFB4A",
"(. c #EDE959",
"). c #F8E755",
"_. c #FCE35D",
"`. c #FFFC56",
"'. c #FAF759",
"]. c #CFC36B",
"[. c #DBC665",
"{. c #DBD96A",
"}. c #E4CB65",
"|. c #E9C864",
" X c #EBC46C",
".X c #ECCA6C",
"XX c #F0C668",
"oX c #E8D468",
"OX c #F6D76B",
"+X c #E4C471",
"@X c #F9CE77",
"#X c #EBD877",
"$X c #F6D87A",
"%X c #F9EA6B",
"&X c #FEFC63",
"*X c #F8F869",
"=X c #F7E579",
"-X c #FAFB78",
";X c #7BEE82",
":X c #7DF285",
">X c #A89591",
",X c #BEAD9F",
"<X c #8DD08A",
"1X c #81F689",
"2X c #85FA8D",
"3X c #8AFF92",
"4X c #E6D388",
"5X c #F4DD83",
"6X c #F4E184",
"7X c #FCE788",
"8X c #FEF988",
"9X c #FDEC90",
"0X c #F9F596",
"qX c #FEFD9A",
"wX c #FDFBA7",
/* pixels */
"} O.4.:X;X} } } } } } } } } } } } } } } } } } } } } } } } } } } } } } } } } } } } } <.3.1.:X:X+. . .",
"O.| ) 4.8.} } } } } } } } } } } } } } } } } } } } } } } } }  .} } } } } } } } } } } o.,.1.r.r.q.<. .",
"1.^ K _ o.} } } } } } } } } } } } } } } } } } } } } } } } } } } } } } } } } } } } }  .o.1.1.5.1Xq. .",
"T R ! { } } } } } 7.t.o.} } } } } } } } } } } } } } } } } } } } } } } } } } } } }  .o.[ T T ^ 5.<. .",
"L Q } } } } } { ( 7.;X+.} } } } } } } } } } } } } } } } } } } } } } } } } } } } } } } _ L X P ,.@.} ",
"} } } } } } o.~ X Q } } } } } } } } }  .} } } } } } } } } } } } } } } } } } } } }  .} } } L P :.,. .",
"} } } } } } } { ! [ } } } } } } } @.,.,.w.w.+.o.} } 3.t.#.} } } } } } } } } } } } } } } } ( Q T ! } ",
"} } } } } } } } } } } } } } } } } ,.1.4.y.y.2.+.} $.q.;X$.} } } } } } } } } } } } } } } } } [ I W } ",
"} } } } } } } } } } } } } } } } } 1.1.1.1.9.2Xq.} 3Xt.1.o.} } } } } } } } } } } } } } } } } } } } } ",
"} 2.e.#.} } } } } } } } } } } } +.( Q T :.5.w.4.,.r.5.2.o...,.w.q.} } } } } } } } } } } } } } } } } ",
" .8.1X6.+.} } } } +.#. .+.@.-.C.x.k.u.' ;.x.c.x.0.-.C.M.z.%.6.;Xt.} } } } } } } } } } } } } } } } } ",
"} @.5.y.y.} }  .} q.1X1.r.<Xk.Z.#X$X7XI.K.$XOX@XK.N.W.#X$X5X].v.%.%.M.%.} } } } } } } } } } } } } } ",
"} O.1.5.5.,. .<.y.r.9.1.1.z.N.8X6X5X5X6X=X%X{.5X9X7X6X5X6X5X$X=X@X9X=X9X7XX.} } } } } } } } } } } } ",
"} ..:.,.1.:. .<.1Xw.1.:.<.u.J.{.#X}.OX[.J.Q.OX4X.X X.X#X5X$X5X X}.#X=X5X#XOX} } } } } } } } } } } } ",
"} ! T :.:.P [ @.9.4.1.T ! z.g.W.XX XL.R.A.H S.oX}.}.!.!.!.|..X.X}.W.A.F.Q.j.} } } } } } } } } } } } ",
"} Q L | ..K ( o.:.1.1.U ! -.t Q.L.XX!.L.d = * F.!.|..X}.s b.A.G..XD.% = r @ } } o.#.o. .} } } } } } ",
"} } } } } } { ! X ) 1.4.r.1XC.g. X.XL.a ; J n # R.+X!.x & h # f !.f g A ; B  .o.7.2X9.1.} } }  .} } ",
"} } } } } } Y T ..:.1.1.` T =.f.~.}.Y.q D S g f A.G.g.r J A ; b.f h F D 0 =.+.y.t.9.@.o. . .} } } } ",
"} } } } } } Y R 1.1.2.1./ Y *.V J.P.f g J S H wXG.i.r Z S Z D.8X& b A ; b.C.:.:Xw...>.$.o. .} } } } ",
"} } } } } } } { } } } } { { } N < q r D F m v '.'.).j F S g p.f 4   0 P.c.<X1.1.) X 9.:X1.o.} } } } ",
"} } } } } } } } } } } } } } } M 1 x % Z A ; v h.P.!.x b S % $ w a : V `.b.| ,.R ^ ) 4.9.@. .} } } } ",
"} } } } } } } } } } } } } } } N w d > ; - v (.p.F.*X=XC % 0 w k k w t '.i.E ..X T :.,.,.} } } } } } ",
"} } } } } } } } } } } } } } <X4 l l k   e S.N.4 6 O K.%X4XZ.0 z d w t ~.x.X X X X X ! } } } } } } } ",
"} } } } } } } } } } } } } } >X> k V : m.qX4X. 3 l d $ T.wXc.0 z x 5 A.H.o X X Q Q Q { } } } } } } } ",
"} } } } } } } } } } } } } } + k d < u 0X8X9X9 k k f > m.-XV , z z 5 {.m.I o L { } } } } } } } } } } ",
"} } } } } } } } } } } } } } 8 c e > i 0X0X7Xy q w z 4 h./.a.9 w z $ H.x.[ [ [ } } } } } } } } o.} } ",
"} } } } } } } } } _ ! } } } N 5 3 : l.qX-X-XA.> x h 6 (.&Xs.7 2 r , E.z. .} } } } } } } } } } } } } ",
"} } } } } } } } } Y X { } } } N 8 i 8X*X'.-Xc.q c w t -X0XE., > : i.&X] } } } } } } } } } } } } } } ",
"} } } } o.o.} ( X X X ;Xq. .} } ,XK.8X*X&XOX, s x < n.wX&X`.^.7 b.-XE.%.} } } } } } } } } } } } } } ",
"} } } 2.6.2.@.{ T Y Y r.5.o.Q _ m.oXqX'.'.(.4 q x : ].&X(.`.T.g.-X*Xd.} } } } } } } } } } } } } } } ",
"} } +.y.2X2X5.1.,..._ 4.1.:.K Y V.).'.)._.&XU.6 : 8 W.u 6 6 k.m._.*XM.} } } } } } } } } } } } } } } ",
"o.~ R ) ..8.4.1.3.,.,.O.,.1.W _ V.G.%XI.R.-X-X[.s.{.V : p > &.C.a.B.%.} } } } } $.w.+.} } } } } } } ",
"} Q L L U +.,.1.1.1.1.o.O.1.o.@.3.V.l.s -XwX).'.'._.O w 3 6 ;.} } } } } } } } o.3.:XO._ } } } } } } ",
"} } { :.1.1.o.o.1.1.1.o. . .1.1.1.O. .c.%X8X'.%X*X%XO x G q ' } } } } } } } } 1.3.4.Y I } } } } } } ",
"} } } +.@.1.,.O.,.O.O. .}  .1.,.O.:.,.l.^.'.).A.%X&Xa.5 G 2 ' } } } } } } } } 1...E R / ,.:.,.O.O.:.",
"} } } o. .1.1.,. . . . .} } 1.,.o.,.4.6.B._.~.b.-X*XF.: x > ] } } } o.+.o.o.o.1.) o ( O.1.1.1.3.1.4.",
"} } } } } } } } } } } } } } } O.1.1.1.1.~ c.u s.8XwX^.O r y ' } } } w.3X3Xq.} } } o.,.1.1.1.1.1.4.4.",
"} } } } } } } } } } } } } } } O.3.1.:.E o o ~ h.*X0X&X6 q t X.} } } 2.8.2Xw.@.} o.O.1.1.1.) E E E E ",
"} } } } } } } o.+.o.} } } } } O.1.1...X X Y { A.&X).'.u @ &.o.} } } } } 1Xr.1.} O.1.4.1.:.Y X K X X ",
"} } } } } } } $.;X7.} } } } } } o.o.} _ _ [ } } T.%X!.l.o.} } } } } } } #.<.1.} O.1.4...P X o / _ _ ",
"} } } } } } } +.7._ Y { } } } } } } } } } } } } } c.x.-.} } } } } } } } } o.O.} o.O.O.| W W ! { } } ",
"} } } } } } } } } R o { } } } } } } } } } } } } } } o.} } } } } } } } } } } } } } } } } } o.} } } } ",
"} } } } } } } } } _ ! { } } } } } } } } } } } } } } } } } } } } } } } } } } } } } } } } } } } } } } ",
"} } } } } } } } } } } } } } } } } } } } } } } } } } } } } } } } } } } } } } } } } } } } } } } } } } ",
"} } } } } } } } } } } } } } } } } } } } } } } } } } } } } } } } } } } } } } } } } } } } } } } } } } ",
"} } } } } } } } } } } } } } } } } } } } } } } } } } } +.e.e.} } } } } } } } } } } } } } } } } } } o.",
"} } } } } } } } } } } } } } } } } } } } } } } } } } } +.e.t.[ { } } } } } } } } } } } } } } } } } } ",
"} } } } } } } } } } } } } } } } } } } } } } } } } } } } +.{ o _ } } } } } } } } } } } } } } } } } } ",
"} } } } } } } } } } } } } } } } } } } } } } } } } } } } } { R [ } } } } } } } } } } } } } } } } } } ",
"} } } +.} } } } } } } } } } } } } } } } } } } } } } } } } } } } } } } } } } } } } } } } } } } } } } "
};
