/* XPM */
static char *cGl6emEy[] = {
/* columns rows colors chars-per-pixel */
"50 50 227 2 ",
"   c #66220D",
".  c #007A0D",
"X  c #0D7E0D",
"o  c #057B12",
"O  c #754219",
"+  c #754E19",
"@  c #74562E",
"#  c #746B2E",
"$  c #736936",
"%  c #863605",
"&  c #BD3C15",
"*  c #8C362A",
"=  c #A92D21",
"-  c #CB3C36",
";  c #EB3638",
":  c #F13836",
">  c #874717",
",  c #934D16",
"<  c #A1561D",
"1  c #956E1B",
"2  c #954825",
"3  c #8C512B",
"4  c #975A33",
"5  c #A54D26",
"6  c #B74329",
"7  c #A95A28",
"8  c #B5592A",
"9  c #B04E31",
"0  c #A85632",
"q  c #B45C33",
"w  c #976A2A",
"e  c #926F2D",
"r  c #886631",
"t  c #8D7338",
"y  c #987538",
"u  c #A6642E",
"i  c #B66528",
"p  c #AB6932",
"a  c #BD6633",
"s  c #AF7431",
"d  c #B67D36",
"f  c #D04C33",
"g  c #C3672A",
"h  c #CA6A36",
"j  c #D16E32",
"k  c #E2693E",
"l  c #E73B47",
"z  c #F43D48",
"x  c #EE3E55",
"c  c #815242",
"v  c #8E724B",
"b  c #947C56",
"n  c #B87B44",
"m  c #A77A53",
"M  c #D34F43",
"N  c #FA494B",
"B  c #F35651",
"V  c #CD6C4A",
"C  c #D46E45",
"Z  c #FF5360",
"A  c #0D800D",
"S  c #0D8416",
"D  c #0D8816",
"F  c #15861B",
"G  c #168B1C",
"H  c #1C8E23",
"J  c #1C9424",
"K  c #259329",
"L  c #24942B",
"P  c #269C2E",
"I  c #2A9732",
"U  c #2D9932",
"Y  c #379839",
"T  c #339D39",
"R  c #2AA334",
"E  c #32A339",
"W  c #38A13D",
"Q  c #33AB3B",
"!  c #3DA441",
"~  c #3AAD41",
"^  c #38B040",
"/  c #4E984A",
"(  c #708C4B",
")  c #729759",
"_  c #40A645",
"`  c #40A847",
"'  c #46AA4A",
"]  c #4BAF4F",
"[  c #44B34A",
"{  c #4BB14F",
"}  c #46BC4C",
"|  c #59A756",
" . c #4DB353",
".. c #4FBC55",
"X. c #52B656",
"o. c #51BC56",
"O. c #55BC59",
"+. c #5AB95D",
"@. c #69A258",
"#. c #72AB58",
"$. c #7C9569",
"%. c #6BAB68",
"&. c #61B563",
"*. c #75B26A",
"=. c #79BC76",
"-. c #4CC454",
";. c #4FC858",
":. c #51C056",
">. c #53C459",
",. c #58C05E",
"<. c #55CD5E",
"1. c #5CC561",
"2. c #5CCC63",
"3. c #5BD262",
"4. c #5FD768",
"5. c #63C967",
"6. c #63CD69",
"7. c #63D46A",
"8. c #68D36E",
"9. c #62D969",
"0. c #7CC778",
"q. c #6AD671",
"w. c #6BDB72",
"e. c #71DD76",
"r. c #6CE274",
"t. c #74E37A",
"y. c #75E97C",
"u. c #90943C",
"i. c #BE993B",
"p. c #C5863B",
"a. c #CC9F3A",
"s. c #E28734",
"d. c #D0A739",
"f. c #DFD13D",
"g. c #E8CD37",
"h. c #8B994C",
"j. c #97974D",
"k. c #8F8F53",
"l. c #899855",
"z. c #AE8D4D",
"x. c #B28D48",
"c. c #9EA34E",
"v. c #84A75A",
"b. c #92A252",
"n. c #B7A646",
"m. c #B6B355",
"M. c #959B70",
"N. c #B29564",
"B. c #B78A76",
"V. c #A59A72",
"C. c #8AA26A",
"Z. c #88B77A",
"A. c #ADB266",
"S. c #C88747",
"D. c #CD8E4B",
"F. c #C7964A",
"G. c #E39E5F",
"H. c #C8B949",
"J. c #D6B747",
"K. c #D5A953",
"L. c #C8B158",
"P. c #D9B656",
"I. c #E1AF4E",
"U. c #E5BF4B",
"Y. c #E9BA55",
"T. c #D9B664",
"R. c #C5B371",
"E. c #88C07D",
"W. c #DAC549",
"Q. c #D9C859",
"!. c #D6D451",
"~. c #E7CA4F",
"^. c #ECD24F",
"/. c #E5C65A",
"(. c #E8D857",
"). c #F4DD58",
"_. c #E7E94B",
"`. c #F7EA4A",
"'. c #F8FB4A",
"]. c #F8EB5B",
"[. c #F9F658",
"{. c #FCFC5D",
"}. c #DAC965",
"|. c #D5D674",
" X c #E8C865",
".X c #E7D568",
"XX c #F2D769",
"oX c #F2CB71",
"OX c #EAD479",
"+X c #F7DB77",
"@X c #F2DC7D",
"#X c #F8E764",
"$X c #FBF867",
"%X c #EBE576",
"&X c #F9E474",
"*X c #FAF674",
"=X c #FCFC7B",
"-X c #7BEE82",
";X c #7DF285",
":X c #B69D96",
">X c #93B082",
",X c #B3AA90",
"<X c #AFA9A3",
"1X c #C9B6B2",
"2X c #80C483",
"3X c #98CA92",
"4X c #A3CB9F",
"5X c #81F689",
"6X c #85FA8D",
"7X c #8BE491",
"8X c #8AFF92",
"9X c #B8D0BB",
"0X c #EED980",
"qX c #F7DB88",
"wX c #EFE88D",
"eX c #F4E283",
"rX c #FDE384",
"tX c #FDE98A",
"yX c #FBF685",
"uX c #FEFC84",
"iX c #FDFE8A",
"pX c #EAE797",
"aX c #F6E792",
"sX c #F8F896",
"dX c #FEFD94",
"fX c #FDFE9F",
"gX c #FEFEA8",
/* pixels */
"] ..3.;X-X] ] ] ] ] ] ] ] ] ] ] ] ] ] ] ] ] ] ] ] ] ] ] ] ] ] ] ] ] ] ] ] ] ] ] ] ] >.<.3.;X;Xo.{ ] ",
"..[ Q 3.8.] ] ] ] ] ] ] ] ] ] ] ] ] ] ] ] ] ] ] ] ] ] ] ] ] ] ] ] ] ] ] ] ] ] ] ] { o.>.<.r.r.8.,.] ",
"<.R A ! ] ] ] ] ] ] ] ] ] ] ] ] ] ] ] ] ] ] ] ] ] ] ] ] ] ] ] ] ] ] ] ] ] ] ] ] ] ] ]  .<.<.3.5Xq.{ ",
"J L T ' ] ] ] ]  .6.e. .] ] ] ] ] ] ] ] ] ] ] ] ] ] ] ] ] ] ] ] ] ] ] ] ] ] ] ] ] ] ] _ J J R 9.,.{ ",
"S U ] ] ] ] ] ' ! 2.-XX.] ] ] ] ] ] ] ] ] ] ] ] ] ] ] ] ] ] ] ] ] ] ] ] ] ] ] ] ] ] ] _ S . D ;.o.{ ",
"] ] ] ] ] ] ] W . I ] ] ] ] ] ] ] ] ] ] ] ] ] ] ] ] ] ] ] ] ] ] ] ] ] ] ] ] ] ] ] ] ] ] ] S D :.:.{ ",
"] ] ] ] ] ] ] ' T ` ] ] ] ] ] ] ] ..>.-.w.w. .] ] ] 2.t.O.] ] ] ] ] ] ] ] ] ] ] ] ] ] ] ] W U J T { ",
"] ] ] ] ] ] ] ] ] ] ] ] ] ] ] ] ] 1.3.3.-Xy.1.X.] ,.q.-X,.] ] ] ] ] ] ] ] ] { ] ] ] ] ] ] ] _ F I ] ",
"] ] ] ] ] ] ] ] ] ] ] ] ] ] ] ] ] >.2.2.<.9.6Xw.] 8Xt.<. .{ { ]  .] ] ] ] ] ] ] ] ] ] ] ] ] ] ] { ] ",
"] 5.e.X.] ] ] ] ] ] ] ] ]  . .&.&.! J H -.3.w.3.>.w.9.<. . .:.w.8.{ ] ] ] ] ] ] ] ] ] ] ] ] ] ] ] ] ",
"] 8.5X5.X.] ] { ] X.X.X.X.+.Z.N.z.m l./ l.u.k.Z.0.*.#.l.k.#.5.-Xt.{ ] | ] { ] ] ] { ] ] ] ] ] ] ] ] ",
"{ o.9.y.y.{ ] { ] q.5X<.7Xb D.XXtXtXoXF. X+X+XT.K.T.0XrXqX XK.j.c.c.b.#.@.| ] ] ] ] ] ] ] ] ] ] ] ] ",
"] o.<.4.4.;. .O.y.e.9.3.,Xa.rXeXqX0XeX&X+X+X@X&XrXqXeXOX@XrXtXOXtXtXaX%X|.h.@.] ] ] ] ] ] ] ] ] ] ] ",
"] } -.;.<.-.{ ,.5Xr.<.-.m d./.OXoXOXoXI.P.}.@XoX XoXXX0XeX@X X/.OXeXaX+X(.H.k.] ] ] ] ] ] ] ] ] ] ] ",
"] T J -.-.G ! o.9.3.3.J ,XS.I./.Q..X/.p.7 q F..X}./.Y.U.(.XXK.n F.d.D.Y./.n.C.] ] ] ] ] ] ] ] ] ] ] ",
"] I S [ } X W { -.;.<.G =.2 q L.XXK.7 - x ; 6 D.~.Y.S.7 D.F.a 6 0 = - 9 9 3 +.]  .O. .{ ] ] ] ] ] ] ",
"] ] ] ] ] ] ] T . ^ <.<.e.9X= 5 0 8 N N Z : l & 9 0 f x M - ; ; N Z N z = *.] ] 4.6X9.1.] ] ] ] ] ] ",
"] ] ] ] ] ] H H } ;.<.3.^ 4Xn Y.V ; N B N V Y.G.D.- N Z z B G.j l z f s.y 2X .-Xt.4.:. .] { ] ] ] ] ",
"] ] ] ] ] ] H J >.1.1.;.! _ N. X$XI.h l k pXfXdXiX#Xs.C T.wX=X*X`.p.Y. XV.3XX.-Xr.} >.O. . .] ] ] ] ",
"] ] ] ] ] ] ] ] ] [ ] ] ] ' 1XO p p I.U.^.[.#X`.).[.[.=X{.].s u e W.{.f.>X0.2.3.^ o 4.-X<. .] ] ] ] ",
"] ] ] ] ] ] ] ] ] ] ] ] ] ] <X> g 8 , #X~.`.f.P.W.].[.$X=Xy 9 g 7 @ _.g.M.} >.L R Q 3.9.o.{ ] ] ] ] ",
"] ] ] ] ] ] ] ] ] ] ] ] ] ] :X2 j d 0 i./.[.m.i.(.sXsXgXqX2 h g g > J.Y.V.E } . J -.>.>.] ] ] ] ] ] ",
"] ] ] ] ] ] ] ] ] ] ] ] ] ] 1X% g V , n./.d.y > 3 e &XdXpX, h g a * P.c./ . . . . . T ] ] ] ] ] ] ] ",
"] ] ] ] ] ] ] ] ] ] ] ] ] [ <X> i 7 4 &XaXv * h i 2 1 uXpX3 a 7 , e .Xz.Y . . U I I ` ] ] ] ] ] ] ] ",
"] ] ] ] ] ] ] ] ] ] ] ] ] ] Z.c 9 1 %XfXgXn.7 j g q w *X`.y 5 g O pXf.>Xo X o ] ] ] ] ] ] ] ] ] ] ] ",
"] ] ] ] ] ] ] ] ] ] ] ] ] ] ] :X  x.iXpXfXn.5 i h i r '.'.!.O > T.uXd.Z.` ! ` ] ] ] ] ] ] ] ] ] ] ] ",
"] ] ] ] ] ] ] ] ] _ U ] ] ] ] E.,XR.iXyX*X^.3 < g 0 n.=X$X[.J.Q.*X{.x.+. .] ] ] ] ] ] ] ] ] ] ] ] ] ",
"] ] ] ] ] ] ] ] ' K . ' ] ] ] ] B. XuXXX=X{.3 0 g   (.dX$X[.].(.{.'.k.] ] ] ] ] ] ] ] ] ] ] { ] ] ] ",
"] ] ] ]  . .] W . . . -Xq.] ] ] B.Q.=XK.Q.$X.X4 + R.gX*X`.{.H.t #X`.l.] ] ] ] ] ] ] ] ] ] ] ] ] ] ] ",
"] ] ] ,.1.5.O.~ J H G r.9. .U ! 3XN.x.b n.yX$XpXpXiX=X'.].{.n.%.n.L.| } ] ] ] ] ] ] ] ] ] ] ] ] ] ] ",
"] ]  .-X6X6X7.2.;...' <.2.-.S H ] ] ] Z.n.sX$X$XgXyXF.@ + t C.X.#.) ] ] ] ] ] ] ] ] ] ] ] ] ] ] ] ] ",
"] W L ^ } 7.<.3.2.>.-...:.<.L ! ..o.} %.c.iXyX`.iXA.@ 7 i $ =. .] ] ] ] ] ] ]  .O.q.O.] ] ] ] ] ] ] ",
"] U o F G  .>.<.<.<.<. ...>...o.<.<.} | u.].|.$X'.u.r i w $.] ] ] ] ] ] ] ] ]  .2.;X..! ] ] ] ] { ] ",
"] ] ' :.<.2... .<.<.<. .{ { <.<.<... .;.Z.b.h.*X{.k.$ n e ) ] ] ] ]  .] ] ] ] 2.3.3.J F ] ] ]  .{ { ",
"] ]  ...:.<.:.o.-.o...] ] { <.>.....>.3.3.6.E.m.$XQ.# x.e @.] ] ] ] ] ] ] ] } 2.^ P P T o.-.o.:.:.:.",
"] ] ] ]  .<.<.>.] ]  .] ]  .<.:.[ <.<.<.;.;.<.v.`.'.# # @ ] ] ] ] ]  . . . .] >.^ S W  .<.3.<.<.3.<.",
"] ] ] ] ] ] ] ] ] ] ] ] ] ] ] ..<.3.<.<.F . o ( ]._.( | ] ] ] ] ] ] w.8X8Xq. .] ] ] <.<.3.<.<.<.<.<.",
"] ] ] ] ] ] ] ] ] ] ] ] ] ] ] ..<.<.-.P X o L C.H.(.l.] ] ] ] ] ] ] 1.8.6Xw...]  ...<.<.<.Q P P P R ",
"] ] ] ] ] ] ]  .X.] ] ] ] ] ] ..<.<.} . . F ' =.j.j.M.] ] ] ] ] ] ] ] ] ;Xr.3.] ..<.<.<.;.G . . . . ",
"] ] ] ] ] ] ] O.;X5.] ] ] ] ] ]  . .{ ! ! _ ] ] =.,X] ] ] ] ] ] ] ] ] ] O.1.;.] ..<.3.} D . S W ! ! ",
"] ] ] ] ] ] ] X.6.~ H ' ] ] ] ] ] ] ] ] ] ] ] ] ] ] ] ] ] ] ] ] ] ] ] ] ]  ...]  .....[ I I T ] ] ] ",
"] ] ] ] ] ] ] ] ] L X ' ] ] ] ] ] ] ] ] ] ] ] ] ] ] ] ] ] ] ] ] ] ] ] ] ] ] ] ] ] ] ] ] ] ] ] ] ] ] ",
"] ] ] ] ] ] ] ] ] ! Y ] ] ] ] ] ] ] ] ] ] ] ] ] ] ] ] ] ] ] ] ] ] ] ] ] ] ] ] ] ] ] ] ] ] ] ] ] ] ] ",
"] ] ] ] ] ] ] ] ] ] ] ] ] ] ] ] ] ] ] ] ] ] ] ] ] ] ] ] ] ] ] ] ] ] ] ] ] ] ] ] ] ] ] ] ] ] ] ] ] ] ",
"] ] ] ] ] ] ] ] ] ] ] ] ] ] ] ] ] ] ] ] ] ] ] ] ] ] ] ]  .] ] ] ] ] ] ] ] ] ] ] ] ] ] ] ] ] ] ] ] ] ",
"] ] ] ] ] ] ] ] ] ] ] ] ] ] ] ] ] ] ] ] ] ] ] ] ] ] ] X.e.e.] ] ] ] ] ] ] ] ] ] ] ] ] ] ] ] ] ] ] ] ",
"] ] ] ] ] ] ] ] ] ] ] ] ] ] ] ] ] ] ] ] ] ] ] ] ] ] ]  .e.t.! ' ] ] ] ] ] ] ] ] ] ] ] ] ] ] ] ] ] ] ",
"] ] ] ] ] ] ] ] ] ] ] ] ] ] ] ] ] ] ] ] ] ] ] ] ] ] ] ] X.' X ! ] ] ] ] ] ] ] ] ] ] ] ] ] ] ] ] ] ] ",
"] ] ] ] ] ] ] ] ] ] ] ] ] ] ] ] ] ] ] ] ] ] ] ] ] ] ] ] ] ' L ` ] ] ] ] ] ] ] ] ] ] ] ] ] ] ] ] ] ] ",
"] ] ] ] ] ] ] ] ] ] ] ] ] ] ] ] ] ] ] ] ] ] ] ] ] ] ] ] ] ] ] ] ] ] ] ] ] ] ] ] ] ] ] ] ] ] ] ] ] ] "
};
