/* XPM */
static char *cGl6emEx[] = {
/* columns rows colors chars-per-pixel */
"50 50 216 2 ",
"   c #763606",
".  c #00790D",
"X  c #0D7E0D",
"o  c #1C790E",
"O  c #784718",
"+  c #794525",
"@  c #755723",
"#  c #697336",
"$  c #8C3D16",
"%  c #BA3E3C",
"&  c #CC3A2D",
"*  c #D22B35",
"=  c #C23E38",
"-  c #D8373A",
";  c #E73A38",
":  c #F53A3D",
">  c #82441C",
",  c #9A471D",
"<  c #92541C",
"1  c #A34B1E",
"2  c #A45F14",
"3  c #B25618",
"4  c #894822",
"5  c #8C4E2C",
"6  c #974923",
"7  c #895526",
"8  c #AA4C2C",
"9  c #A65428",
"0  c #AB542A",
"q  c #B3542B",
"w  c #BA4633",
"e  c #AE5436",
"r  c #B35739",
"t  c #946430",
"y  c #A9662B",
"u  c #BA6A28",
"i  c #AE7428",
"p  c #B76435",
"a  c #A47537",
"s  c #B67936",
"d  c #DA4532",
"f  c #CE5633",
"g  c #D95A38",
"h  c #E2503D",
"j  c #D06C2E",
"k  c #C46931",
"l  c #E06239",
"z  c #EB2846",
"x  c #EE3E45",
"c  c #F43C48",
"v  c #895C49",
"b  c #956D4F",
"n  c #B67847",
"m  c #D74D48",
"M  c #F44949",
"N  c #FF4857",
"B  c #0D800D",
"V  c #0D8416",
"C  c #0D8816",
"Z  c #16861C",
"A  c #168C1C",
"S  c #1C8D23",
"D  c #169022",
"F  c #1C9424",
"G  c #2B8F27",
"H  c #259329",
"J  c #24942B",
"K  c #259C2D",
"L  c #2A9732",
"P  c #2D9A33",
"I  c #339D39",
"U  c #379E3B",
"Y  c #26A032",
"T  c #2DA535",
"R  c #38A13D",
"E  c #33AB3B",
"W  c #479B3B",
"Q  c #6D892F",
"!  c #7D9B3D",
"~  c #3DA441",
"^  c #3AAD42",
"/  c #3CB445",
"(  c #7C9F4A",
")  c #40A645",
"_  c #40A847",
"`  c #46AA4A",
"'  c #4BAF4F",
"]  c #57A44D",
"[  c #40B547",
"{  c #46B44D",
"}  c #4BB14F",
"|  c #44BB4C",
" . c #54B14D",
".. c #56AC50",
"X. c #4DB453",
"o. c #4FBC55",
"O. c #52B555",
"+. c #51BC56",
"@. c #57BA58",
"#. c #54BC59",
"$. c #60AE5B",
"%. c #69A965",
"&. c #64B764",
"*. c #76BA75",
"=. c #4BC354",
"-. c #4FC858",
";. c #51C056",
":. c #53C459",
">. c #59C15E",
",. c #55CD5E",
"<. c #58C95F",
"1. c #71C457",
"2. c #5CC561",
"3. c #57CF60",
"4. c #5DCC63",
"5. c #5BD263",
"6. c #5FD768",
"7. c #62C868",
"8. c #62CD69",
"9. c #62D469",
"0. c #68D36E",
"q. c #62D96A",
"w. c #69D670",
"e. c #6BDB72",
"r. c #71DD76",
"t. c #6CE174",
"y. c #70E277",
"u. c #74E37A",
"i. c #75EA7C",
"p. c #78EA7F",
"a. c #9F8336",
"s. c #A68131",
"d. c #B58839",
"f. c #B99636",
"g. c #C2943E",
"h. c #D9AB3C",
"j. c #E5CB38",
"k. c #939550",
"l. c #AD844C",
"z. c #B58942",
"x. c #AB9746",
"c. c #A98658",
"v. c #B39954",
"b. c #93A94B",
"n. c #BBA546",
"m. c #BAAA53",
"M. c #929670",
"N. c #AA8D6A",
"B. c #A58A73",
"V. c #82A965",
"C. c #81B579",
"Z. c #D18E4D",
"A. c #E39245",
"S. c #CAA848",
"D. c #D3B54B",
"F. c #D0B251",
"G. c #E4B749",
"H. c #E6A752",
"J. c #E7BD58",
"K. c #E59860",
"L. c #D0B46A",
"P. c #ECBE65",
"I. c #99D260",
"U. c #D7C248",
"Y. c #D8D746",
"T. c #D9C45A",
"R. c #D5CD5E",
"E. c #E3C74A",
"W. c #E5D44D",
"Q. c #EBCD5A",
"!. c #E9DA5B",
"~. c #EAE44C",
"^. c #ECEE4F",
"/. c #FDE84E",
"(. c #FEF64A",
"). c #F8EA59",
"_. c #FDFA54",
"`. c #FAF65C",
"'. c #D6CA6E",
"]. c #D8CC6D",
"[. c #E5CA69",
"{. c #ECCE6F",
"}. c #E6D46C",
"|. c #F7D967",
" X c #EBD378",
".X c #F5D877",
"XX c #F3D67A",
"oX c #DDEE64",
"OX c #ECEE6F",
"+X c #FCE96D",
"@X c #F4F664",
"#X c #FCF366",
"$X c #FEFC65",
"%X c #FFFD6B",
"&X c #F5E67A",
"*X c #FFFB75",
"=X c #F9F778",
"-X c #7BEE83",
";X c #7DF285",
":X c #98B288",
">X c #93C896",
",X c #81F689",
"<X c #85FA8D",
"1X c #8AFF92",
"2X c #DED88C",
"3X c #FCDC83",
"4X c #EAE18A",
"5X c #FBE482",
"6X c #FAE885",
"7X c #FAF786",
"8X c #FDFE83",
"9X c #FCFE8E",
"0X c #F8E193",
"qX c #F9F897",
"wX c #FDFE9B",
"eX c #FEFCA8",
/* pixels */
"' o.5.;X;X' ' ' ' ' ' ' ' ' ' ' ' ' ' ' ' ' ' ' ' ' ' ' ' ' ' ' ' ' ' ' ' ' ' ' ' ' <.3.,.;X;XO.X.' ",
"o.[ E 4.0.' ' ' ' ' ' ' ' ' ' ' ' ' ' ' ' ' ' ' ' ' ' ' ' ' ' ' ' ' ' ' ' ' ' ' ' ' o.;.,.t.t.w.#.' ",
",.T X ~ ' ' ' ' ' ' ' ' ' ' ' ' ' ' ' ' ' ' ' ' ' ' ' ' ' ' ' ' ' ' ' ' ' ' ' ' ' ' ' X.,.,.6.;Xw.' ",
"F J I ` ' ' ' ' ' 2.-XX.' ' ' ' ' ' ' ' ' ' ' ' ' ' ' ' ' ' ' ' ' ' ' ' ' ' ' ' ' ' X.~ F F T q.2.X.",
"V P ' ' ' ' ' ` ~ 4.-XX.' ' ' ' ' ' ' ' ' ' ' ' ' ' ' ' ' ' ' ' ' ' ' ' ' ' ' ' ' ' ' ) V . C -.o.' ",
"' ' ' ' ' ' ' R . P ' ' ' ' ' ' ' ' ' ' ' ' ' ' ' ' ' ' ' ' ' ' ' ' ' ' ' ' ' ' ' ' ' ' ' V V -.o.' ",
"' ' ' ' ' ' ' ` U ~ ' ' ' ' ' ' ' o.-.:.e.e.X.' ' ' 4.u.#.' ' ' ' ' ' ' ' ' ' ' ' ' ' ' ' U P F T ' ",
"' ' ' ' ' ' ' ' ' ' ' ' ' ' ' ' ' 2.3.3.-Xi.2.O.' >.w.-X>.' ' ' ' ' ' ' ' ' ' ' ' ' ' ' ' ' _ Z P ' ",
"' ' ' ' ' ' ' ' ' ' ' ' ' ' ' ' } :.3.,.,.q.<Xe.' 1Xy.3.X.} } ' ' ' ' ' ' ' ' ' ' ' ' ' ' ' ' ' ' ' ",
"' 7.r.O.' ' ' ' ' ' ' ' ' ' ' ' } Y F F =.5.q.6.:.e.6.,.X.X.;.e.w.' ' ' ' ' ' ' ' ' ' ' ' ' ' ' ' ' ",
"' 0.,X7.O.' ' ' ' O.O.X.O.O.' ' } S . . / 3.,.,.3.=.-.,.o.X.3.-Xu.' ' ' ' ' ' ' ' ' ' ' ' ' ' ' ' ' ",
"' ;.6.p.p.' ' } ' w.,X3.t.-X .' } ` P . =.3.,.,.3.V T 3.,.,.3.o.X.' ' ' ' ' ' ' ' ' ' ' ' ' ' ' ' ' ",
"' o.,.q.6.:.X.>.p.t.q.3.,.>.' ' ' ;.;.[ F K -.,.3.. Y 3.,.=.A 6.r.:.o.' ' ' ' ' ' ' ' ' ' ' ' ' ' ' ",
"} { =.,.,.=.} >.;Xt.,.=.{ } ' ' ' ;.,.,.F S | -.3.. Y 3.=./ V q.i.,.o.' ' ' ' ' ' ' ' ' ' ' ' ' ' ' ",
"} I F | =.A ~ +.q.5.3.F T } } &.*.*.7.8.o.O.R ^ 3.. Y -.K F / 5.5.X.X.' ' ' ' ' ' ' ' ' ' ' ' ' ' ' ",
"} P V [ | X R } =.-.3.A I &.*.M.c.x.k.V.V.k.Q W =.. K | C V 3.-.o.' ' ' ' ' ' ' X.o.X.} ' ' ' ' ' ' ",
"' ' ' ' } } ` R . E 3.3.r.N.g.|.&X6X5XL.[.3X&X].! ! L.&X7XXXL.Q G ....' ' ' { X.9.;Xq.,.' ' ' ' ' ' ",
"' ' ' ' '  .S S =.=.3.3.&.n .X0X4X&X+X.XXX3XXX&X6XXX6XXXXX3X6X X5X&X&X5X3Xo.=.;X-X6.#.X.' ' ' ' } ' ",
"' ' ' ' ' ' S H -.:.<.:.%.d.U.{. X{.{.G.h.D..XXX{.P.[.&X6X6X&XJ.P.XX4X3X XQ.@.I.t.| #.#.X.X.' ' ' ' ",
"' ' ' ' ' ' ` ' } } }  .&.a D.D.J.P.S.y r q s g.E.J.L.f.d.d.s a g.n.z.Z.L.1.,.3.^ . 6.;X3.X.' ' ' ' ",
"' ' ' ' ' ' ' ' } ' ' ' ' M.> w 8 r w m x : * m p r % * - h M = 8 w - f 0 / :.K Y ^ 5.q.o.X.' ' ' ' ",
"' ' ' ' ' ' ' ' } ' ' ' ' ' b d - c N N & g m ; z ; h g M N : ; M N N : o K | . D =.:.:.' ' ' ' ' ' ",
"' ' ' ' ' ' ' ' ' ' ' ' ' ' V.m.H.g d g Q.7X3XL.H.h.^.$XA.f K.A.l ; - Z.B . . . . . R ' ' ' ' ' ' ' ",
"' ' ' ' ' ' ' ' ' ' ' ' ' ' $.b.+X!.&X9XqXqX7X7X*X=X+X7XqXqX8X@X).G.G.+XX . . L P P ~ X.' ' ' ' ' ' ",
"' ' } ' ' ' ' ' ' ' ' ' ' ' ' @ t 9 g.%Xj.}.`.S.~.).(.(.).#Xd.0 < x.$X~.V X V ` ' ' ' ' ' ' ' ' ' ' ",
"' ' ' ' ' ' ' ' ' ' ' ' ' ' ' # i p , S.|.S.J.W.).%X*XOX9Xl., k p > n._.~ ~ ) ' ' ' ' ' ' ' } ' ' ' ",
"' ' ' ' ' ' ' ' ' R I ` ' ' ' ] ] p 0 d._.W./.^.W.@XwXeXeXs 3 p j 9 a.`.} ' ' ' ' ' ' ' ' ' ' ' ' ' ",
"' ' ' ' ' ' ' ' ' H . ` ' ' ' ' # a 6 s.*X%XS.> 5 + D.9X9Xt 1 9 k 1 f.b.} ' ' ' ' ' ' ' ' ' ' ' ' ' ",
"' ' ' ' } } ` R . . . ;Xw.} ' } { ` 7 ].eX2XO p k q 4 oXeXT.+ > O 7 !.} ' ' ' ' ' ' ' ' ' ' ' ' ' ' ",
"' '  .2.7.7.+.[ F S A t.9.X.I R '  .R.9XqX'.> u p j < R.%X_.T.S.S.4X].} ' ' ' ' ' ' ' ' ' ' ' ' ' ' ",
"' ' O.p.<X<X9.,.:.o.` ,.,.:.B S } } O.+XeXQ.9 9 2 u 7 !./._.~._.+X8X( ' ' ' ' ' ' ' ' ' ' ' ' ' ' ' ",
"' U H E | 0.5.3.3.:.;.+.:.-.L R +.;.{ G 7X*Xd.6 e > f.$X$X(.E.U.[.^.] ' ' ' ' O.#.e.O.' ' ' ' ' ' ' ",
"' L V V F X.:.,.3.,.,.X.o.:.o.+.3.,.| C  .`.@XW.J.Y.@XwX#X(.`.A.z.U.' ' ' ' ' X.4.;X+.~ ' ' ' ' ' ' ",
"' ' ' ;.:.,.X.X.,.3.,.X.} } ,.,.3.X.} -.4.@X#X8X7XeXqX7X`.`.).N.c.b.} ' ' ' X.,.3.3.F Z ' ' ' ' ' ' ",
"' ' ' X.+.3.:.+.=.o.+.} ' ' ,.<.;.;.:.3.3.I.=X=XwXqX8X).Y.`.h.:XX.' ' ' ' ' } ,.| K K I ;.;.;.;.=.;.",
"' ' ' } X.,.,.:.} } } ' ' ' ,.;.} -.,.,.-.b.=X@XqXqXF.+ 7 7 c.' ' ' X.X.X.X.} ,.E X R X.3.3.3.3.3.3.",
"' ' ' ' ' ' ' ' ' ' ' ' ' ' ' o.,.3.,.3.A . m.$X@XOX4 6 k < %.} ' ' e.1X1Xe.' ' ' ' :.3.,.,.,.3.3.3.",
"' ' ' ' ' ' ' ' ' ' ' ' ' ' ' o.3.3.=.K X X b.$X$XS.5 p 3 v ' ' ' ' #.0.<Xr.o.' X.=.,.,.3.E K K K Y ",
"' ' ' ' ' ' ' X.O.X.' ' ' ' ' o.,.,.| . . Z V.{.=XU.O j $ %.} ' ' ' ' ' ,Xt.,.' o.,.,.,.-.A . . . . ",
"' ' ' ' ' ' ' #.-X7.' ' ' ' ' ' X. .{ ) R ) } N.`.@Xl.  N.' } ' ' ' ' ' @.>.,.X.+.,.,.=.V . V R ~ ~ ",
"' ' ' ' ' ' ' O.8.^ S ` ' ' ' ' ' ' ' ' ' ' ' *.m./.E.B.&.' ' ' ' ' ' ' ' X.o.' X.X.+.} L L I ` ' ' ",
"' ' ' ' ' ' ' ' ' J X ` ' ' ' ' ' ' ' ' ' ' ' ' C.n.v.>X' ' ' ' ' ' ' ' ' ' ' ' } } ' ' } ' ' ' ' ' ",
"' ' ' ' ' ' ' ' ' ~ I ' ' ' ' ' ' ' ' ' ' ' ' ' ' ' ' ' ' ' ' ' ' ' ' ' ' ' ' ' ' } ' ' ' ' ' ' ' ' ",
"' ' ' ' ' ' ' ' ' ' ' ' ' ' ' ' ' ' ' ' ' ' ' ' ' ' ' ' ' ' ' ' ' ' ' ' ' ' ' ' ' ' ' ' ' ' ' ' ' ' ",
"' ' ' ' ' ' ' ' ' ' ' ' ' ' ' ' ' ' ' ' ' ' ' ' ' ' ' ' ' ' ' ' ' ' ' ' ' ' ' ' ' ' ' ' ' ' ' ' ' ' ",
"' ' ' ' ' ' ' ' ' ' ' ' ' ' ' ' ' ' ' ' ' ' ' ' ' ' ' X.r.r.' ' ' ' ' X.' ' ' ' ' ' } ' ' ' ' ' ' ' ",
"' ' ' ' ' ' ' ' ' ' ' ' ' ' ' ' ' ' ' ' ' ' ' ' ' ' ' O.r.u.) ` ' ' ' ' ' ' ' ' ' ' ' ' ' ' ' ' ' ' ",
"' ' ' ' ' ' ' ' ' ' ' ' ' ' ' ' ' ' ' ' ' ' ' ' ' ' ' ' O.` X ~ ' ' ' ' ' ' ' ' ' ' ' ' ' ' ' ' ' ' ",
"' ' ' ' ' ' ' ' ' ' ' ' ' ' ' ' ' ' ' ' ' ' ' ' ' ' ' ' ' ` J ) ' ' ' ' ' ' ' ' ' ' ' ' ' ' ' ' ' ' ",
"' ' ' ' ' ' ' ' ' ' ' ' ' ' ' ' ' ' ' ' ' ' ' ' ' ' ' ' ' ' ' ' ' ' ' ' ' ' ' ' ' ' ' ' ' ' ' ' ' ' "
};
