/* XPM */
static char *d2FsbA__[] = {
/* columns rows colors chars-per-pixel */
"50 50 255 2 ",
"   c #0A0C0A",
".  c #040716",
"X  c #1A0916",
"o  c #031413",
"O  c #011C1D",
"+  c #06161A",
"@  c #19141A",
"#  c #130A09",
"$  c #26060C",
"%  c #2C0213",
"&  c #270717",
"*  c #340114",
"=  c #33021C",
"-  c #3B011C",
";  c #360819",
":  c #26141A",
">  c #33030C",
",  c #002116",
"<  c #00231C",
"1  c #002B1C",
"2  c #16211E",
"3  c #0A0824",
"4  c #011E23",
"5  c #061827",
"6  c #171925",
"7  c #011835",
"8  c #190F2E",
"9  c #280727",
"0  c #340223",
"q  c #3C0124",
"w  c #34002B",
"e  c #3C012C",
"r  c #3C0A2B",
"t  c #360B26",
"y  c #281725",
"u  c #361528",
"i  c #3C0234",
"p  c #3C013B",
"a  c #350634",
"s  c #291435",
"d  c #371333",
"f  c #280636",
"g  c #012423",
"h  c #012A23",
"j  c #02242B",
"k  c #022A2C",
"l  c #092529",
"z  c #162427",
"x  c #013629",
"c  c #012434",
"v  c #012B33",
"b  c #072737",
"n  c #033935",
"m  c #172F34",
"M  c #303134",
"N  c #46031A",
"B  c #4E0F1C",
"V  c #430224",
"C  c #43012B",
"Z  c #4B012C",
"A  c #460928",
"S  c #550928",
"D  c #571729",
"F  c #440133",
"G  c #4B0233",
"H  c #44033B",
"J  c #4B023C",
"K  c #460A38",
"L  c #560539",
"P  c #581837",
"I  c #461624",
"U  c #641639",
"Y  c #4B2628",
"T  c #572427",
"R  c #503037",
"E  c #633138",
"W  c #06483B",
"Q  c #104D39",
"!  c #23423B",
"~  c #32423F",
"^  c #3B0147",
"/  c #3C005B",
"(  c #390257",
")  c #2D1444",
"_  c #173454",
"`  c #11354C",
"'  c #293A53",
"]  c #3E0061",
"[  c #283866",
"{  c #430143",
"}  c #4B0144",
"|  c #43014B",
" . c #4C014B",
".. c #470B46",
"X. c #520145",
"o. c #53014B",
"O. c #570848",
"+. c #420155",
"@. c #4C0153",
"#. c #43015C",
"$. c #49015B",
"%. c #580356",
"&. c #511350",
"*. c #691547",
"=. c #650658",
"-. c #661756",
";. c #6D0E50",
":. c #51314C",
">. c #742749",
",. c #772659",
"<. c #7A3B57",
"1. c #6E314B",
"2. c #470164",
"3. c #560367",
"4. c #591969",
"5. c #691569",
"6. c #77196C",
"7. c #731D76",
"8. c #680C6F",
"9. c #572D66",
"0. c #752869",
"q. c #7A2A72",
"w. c #6E2D6F",
"e. c #14524E",
"r. c #2A4E51",
"t. c #2F695B",
"y. c #2E5469",
"u. c #346C6D",
"i. c #514B52",
"p. c #744B53",
"a. c #574E69",
"s. c #6A5375",
"d. c #4A6C6C",
"f. c #716D73",
"g. c #496058",
"h. c #82355A",
"j. c #881D77",
"k. c #872679",
"l. c #963874",
"z. c #8E3171",
"x. c #A4356B",
"c. c #86475B",
"v. c #854A65",
"b. c #9A5978",
"n. c #8F506F",
"m. c #A84A7C",
"M. c #B15670",
"N. c #896E70",
"B. c #A96873",
"V. c #AD7371",
"C. c #A9625A",
"Z. c #C4697C",
"A. c #3A9478",
"S. c #49877A",
"D. c #4B9179",
"F. c #72887B",
"G. c #9E8B73",
"H. c #6D1A83",
"J. c #763091",
"K. c #3E7088",
"L. c #724486",
"P. c #466C8F",
"I. c #6067A0",
"U. c #9A378A",
"Y. c #983996",
"T. c #922A8E",
"R. c #A63C95",
"E. c #A83A8C",
"W. c #9634A7",
"Q. c #962891",
"!. c #94558A",
"~. c #A74499",
"^. c #AC5898",
"/. c #B75A97",
"(. c #AF508D",
"). c #957692",
"_. c #A76586",
"`. c #BA6888",
"'. c #B47487",
"]. c #A66A99",
"[. c #B9659A",
"{. c #BB7897",
"}. c #AB7491",
"|. c #9848AC",
" X c #944EAF",
".X c #A94BB7",
"XX c #AD50AB",
"oX c #9A7DA3",
"OX c #B272A8",
"+X c #C36598",
"@X c #C57B99",
"#X c #C8758D",
"$X c #C778A6",
"%X c #CE77B2",
"&X c #A955C2",
"*X c #B557C7",
"=X c #AD4FC1",
"-X c #B66ED2",
";X c #B57BE1",
":X c #D074CF",
">X c #D878DD",
",X c #4A9885",
"<X c #559888",
"1X c #4C8F8D",
"2X c #6C948C",
"3X c #58A48D",
"4X c #59A99A",
"5X c #65AB97",
"6X c #5EA4AA",
"7X c #6BB8A6",
"8X c #72B2AD",
"9X c #749DA1",
"0X c #6FC1B0",
"qX c #7699C9",
"wX c #77AACB",
"eX c #79C8C8",
"rX c #2F9983",
"tX c #899294",
"yX c #B98799",
"uX c #A9848A",
"iX c #97A99C",
"pX c #AD92AE",
"aX c #85BCAF",
"sX c #85B9B5",
"dX c #8BADB0",
"fX c #B9B7BE",
"gX c #B0B2AF",
"hX c #A099A5",
"jX c #C78A98",
"kX c #C59799",
"lX c #CF8C93",
"zX c #CAA29C",
"xX c #CD8DAE",
"cX c #CAA9AC",
"vX c #E082B6",
"bX c #8CC3BA",
"nX c #AAC6BD",
"mX c #A89BC3",
"MX c #B785D6",
"NX c #86A7C9",
"BX c #8DB0D1",
"VX c #BA9ED6",
"CX c #C786C8",
"ZX c #D787C6",
"AX c #D18ED1",
"SX c #E58DCF",
"DX c #C5B3C7",
"FX c #CCB6CB",
"GX c #D18FEB",
"HX c #E29EE9",
"JX c #8DCBCF",
"KX c #B2D0CD",
"LX c #A8E4E5",
"PX c #D7C9D1",
"IX c #E4CBE1",
/* pixels */
"k k 1 1 1 1 l v sXr.3 + +   # # # 2 # $ ; % & n.oXw - A - * q C F C V Z V Z &.AX5.H O.X.O.%.$.$.+.+.",
"e.r.e.e.! Q e.r.sXd.e.m ! M M ~ ~ R R Y Y T P b.}.&.P P P E P P P ,.*.U *.L -.SX0.O.=.;.8.=.3.3.8.4.",
"JXeX0X0X0X0X8XbXbXbXbXnXnXKXKXPXPXcXcXzXzXzXlXxXjX'.lXkXlXjX_.$X[.SX%X+X+X+X[.%X(.U.~./.XXR.=X>X=X=X",
"6X1Xe.W Q Q Q Q x Q Q ! ~ ~ ~ i.nXi.R Y T T T T E D D D S P *.$X(.;.U *.>.;.;.O.;.=.j.;.5.3.T.;X8.H.",
"wXP.c 4 1 1 1 , < < o o . + 3 a.gX9 X $ % $ * * * - * A C i H :X!.X w 0 e w H { | { } H { ^ J.VX/ / ",
"qXP.7 4 1 1 < 1 l l < z 6 5 3 9.mXs f s u 0 t = = t ; 0 i p p MXL.d ..t K K p p | { } } ^ ^ L.MX( / ",
"qXI.c ` k g g g j g 4 4 5 z 3 a.mX) s 9 t ; u t t t 0 0 r i p OXL.t 0 e K e H ..{ { } } | ^ J.MX( ( ",
"wXP.5 c g g g g 4 O o o . 5 . :.mXf # & & $ % = ; % % % = % i MXw.w e L V V O.J o.X.X.X.} { L.GX] / ",
"JX6X1X,XD.<XS.1X1Xd.S.2XF.f.tXhXFX).p.N.N.n.b.p.v.v.c.b.n.n.v.%X^.^.l.l.l.l.k.k.j.j.x.j.k.k.XXGXJ.J.",
"6X4X4X3X5X5X9X9XKXdXiXiXiXiXhXcXpXgXyXuXuX}.}.xX{.b.}.yXV.jX_.b.[.%X[./.(.(.XXSXR.T.E.E.R.U.|..X X=X",
"x x x x x h k ` NXr.+ 5 2   # : $ : & ; ; = w !.].i e - * A Z C e K G G L J -.AX6.o.%.=.=.o.$./ 2.2.",
"v x x h h g j ` BXr.. + + @ : : u $ $ u t t a ].].f e V A V - G K p e V G F &.AX4.{  .} { ^ #.( 2.2.",
"j g g h g k c ` NXr.7 4 + + 6   @ : : & & t 9 !.].9 r = - V e G w p K e e K 9.MX4.^ |  .| +.#.( ] ] ",
"v k x h g j 7 ` BXr.. 4 + 5 6 6 @ : : $ & t = oXOX0 e r A A Z e F F C G q w 9.AX4.^  .@.@.@./ ( 2.2.",
"e.e.n x x x n e.JXy.5 l z 6 z y u u u ; u t t }.].a C G G G L G G L Z U L J w.HX5. .%.=.=.%.2.3.2.2.",
"8X8X8X7X0XaXdXsXLXBXgXKXfXfXFXDXDXgXcXyXxXyXyXSXxXOXjX{.$X{.[.^.^.SX+X(.[.^.^.HXXXY.~.~.XXW.|.&X X.X",
"eX6Xu.u.u.u.u.d.u.g.g.d.g.f.d.).DXs.p.p.p.p.c.h.<.h.c.<.c.<.0.ZX!.n.z.,.l.z.0.j.j.0.k.k.T.8. XGXJ.J.",
"wXK.c j 1 < g O b 4 O + o . . a.pXs # # > > > > N > * - > - } pXJ.f p K Z V J } X.X.X.o.@.#. X;X] ] ",
"wXI.c b b g b l 5 l l l 6 z 3 a.gX) s 9 d t t q - 0 r d a a ..MXL.f ..e F H { ..^ { H { ^ ^ I.;X] / ",
"wXI.7 v l O b l 4 j g 5 m 8 + a.mXs s s d 0 d r r r i K a p p AXL.^ ..i J H i { ^ { { ..^ ^  XVX/ / ",
"eX1X` 7 1 , 1 o k , o o     . a.VXy X & = % A q e e * - q = F AXn.9 i G G C H ^ }  .{ X.} ^  XGX] / ",
"eXwXy.t.t.t.t.t.r.r.t.g.g.i.a.).DXp.p.p.E 1.1.:.*.1.p.1.1.,.<.vX^.h.,.-.,.,.5.-.7.5.5.6.6.8..X>XH.H.",
"0X0X4X7X5X7X7XsXKXbXaXnXnXnXDXfXFXcXcXzXkXkXyXZXxX{.xX'.#XjX[.%X%XSX#X(.+X/.^.:X~.~.~.~.~.R..X-X*X&X",
"e.W e.W x W e.e.JXy.+ r.m z M M d R I Y Y I G }.].d D D U U L P U ;.L *.O.L T.SX7.%.3.=.8.8.8.8.H.3.",
"n x k g g b 7 _ BX[ 3 7 5 @ @ y 9 9 & 9 t i 9 oX].f e i F e G J ..w F G J H 9.GX4.| H } }  .@.$.] ] ",
"7 k l l c b 7 [ BX[ 8 8 6 @ y 6 y d d 9 a d w ].!.a ..p F H J i p p H H H { w.AX&.^ { X.} { ^ #.+./ ",
"v b g l c 7 7 _ BX[ 5 5 y @ y u 9 y t t r t 0 ].].r e e C F J O.{ K F G L F w.AX2.^ X.} } } +.$./ +.",
"n n x x k c 7 _ qX' 5 o 6 @ @ & y 9 & ; ; % r _.!.q - - V V e F F H C S L C 0.:X5.} %.o.%.%.%.2.2.2.",
"rX4X,X3X<X3X<X6XLX8XtX9XtXhXtXhXuX}.uXV.V.B._.xX$Xb.V.B.B._.b.!.^.[._.m.m.m./.:X!.k.U.T.Q.Q.W.W.W.W.",
"JXwX,X,XD.,X,XD.<X<X2X2X2X9XtXgXFXtXuXN.V.V.b.b.B.b.'.B.B.M._.ZXOX].(.m.m.m.l.!.U.k.U.E.Y.Y.-X>XW.W.",
"eXP.j g h 1 h 1 , , < o o + 3 a.pX9 & $ ; = - V Z - - q q 0 L CX9.^ e G G L J O.} J L X. . . X;X2.] ",
"BXP.b k l , < h < 1 O < @ s 3 s.mX8 s s t r A q V q F e H a &.CXw.^ { H C G H O. .H J X...^  X;X/ ] ",
"qXP.7 5 g < g g O 4 O + 5 6 . L.oX7 ) 9 w r q - ; 0 0 e F p &.CXJ.f H H C L F } J } } } @.(  X-X/ / ",
"wXK.5 5 1 x h g j g O o o @ 3 a.pX9 f 9 = % ; S - N - A Z V  .AXw.p H C V G J O.} } } } | +. X-X] 2.",
"eX1Xe.e.Q e.W e.n n r.m M M ' f.pX:.T Y I T D S U S S B S U *.ZXq.-.O.L ;.;.=.=.=.=.;.=.=.8.|.-X3.3.",
"eX0X4X4X8X0X8XJXKX8XnXnXgXKXcXPXPXcXzXlXlXlXjX%X+X#XlXlXlX@X`.%XZX%X$X+X+X/.(.+XR.R.~.~.~.W.*X-X&X.X",
"e.e.e.e.e.r.e.y.BXy.r.r.r.g.i.i.i.p.E E 1.1.>.@X[.>.>.>.U >.>.*.5.0.,.,.,.-.E.>X6.6.6.6.7.8.H.H.H.H.",
"` ` j k v n 7 _ BX_ 5 . @ @ @ & # : # $ t % 0 OX!.q e Z N S S C G K C A G F 6.:X=.o.o.o.o.@.$.$.#.#.",
"c b j j j b c _ NX' 7 6 6 : : y y y u y u r w OX!.i p K F e C C i i e K K J q.AX%.@. .| | @.$.$.#.+.",
"b v k k v b 7 r.NX' 5 6 z y : y y 6 y y 9 K w ].!.H i i K K F H K K K F F F q.AX%.@.o. .| @.$.$.#.( ",
"h 1 x 1 1 g 5 ` NXm .     # : # X X & $ $ ; - ].!.q N - V q J J F G C V Z G j.:X=.o.%.X.o.@.@.3.$.2.",
"S.A.A.A.S.S.1X2XBX2X2XF.f.N.N.N.).N.N.n.c.n.c.{.`.h.v.h.h.n.z.0.z.!.h.z.l.z.(.:XT.j.k.k.k.6.7.7.J.H.",
"eX0X3X3X3X5X5X9X9X9XdXiXiXgXgXPXIXpXzXyXkXlX'.#X{.`.#X#X@X[.[.ZX%XZX+X[./.(.(.XXY.E.R.E.R.Y.*X:X.X.X",
"6X1Xn W x h n v b k g , 2 2 @ i.).d u ; B > N N N N N S S V O.CX-.X.Z Z L L =.O.%.=.%.O.=.%.XX*X3.3.",
"wXd.7 7 k g j j b b g 5 z 6 3 s.hX9 w q A - N N N V q V Z Z O.%X0.F J C G J J X.X.o.X. . .@.|.*X$.$.",
"NXP.5 7 l < j j + 5 + O @ 6 8 s.oX9 9 0 0 q V V N Z G A G G O.xX0.r J q C G G } { { } { { ^  X&X/ ] ",
"qXK.5 j h < g < g z l @ @ s 8 s.hXw t ; ; V C G C C q - N V ;.%X0.a O.V A C F } O.H ..{ ..+. X-X2.2.",
"wXu.v x h 1 h 1 g O o @ : y 9 p.).t ; I B A V L G Z S B S S S x.&.F G Z L Z O.X.%.} -.@.%.3. X&X3.8.",
"eX7X7X3X3X5X5X7XaX2XiXiXgXzXgXzXzXG.G.lXV.lXZ.Z.Z.M.Z.Z.Z.Z.Z.Z.%X`.M.(.M.(.E./.~.E.R.E.R.R..X=X=X=X",
"rXrXrXA.A.D.D.bXbX2XF.F.G.G.G.G.G.C.C.C.C.C.Z.#XZ.M.M.M.x.C.C.M.+Xm.x.x.x.x.E.:XE.j.Q.Q.Q.Q.Q.Q.W.Q."
};
